<svg width="14" height="14" viewBox="0 0 14 14" fill="none" xmlns="http://www.w3.org/2000/svg">
<path d="M0.804688 4.85432C0.804688 2.49575 2.71669 0.58374 5.07527 0.58374H10.2838C10.5914 0.58374 10.8408 0.833132 10.8408 1.14077C10.8408 1.44841 10.5914 1.69781 10.2838 1.69781H5.07527C3.33197 1.69781 1.91875 3.11103 1.91875 4.85432V10.1327C1.91875 10.4403 1.66936 10.6897 1.36172 10.6897C1.05408 10.6897 0.804688 10.4403 0.804688 10.1327V4.85432Z" fill="white"/>
<path d="M12.0586 3.21535C9.65156 2.94633 7.1834 2.94633 4.77631 3.21535C4.09059 3.29199 3.53954 3.83164 3.45872 4.52269C3.17323 6.96359 3.17323 9.42945 3.45872 11.8703C3.53954 12.5614 4.09059 13.101 4.77631 13.1777C7.1834 13.4467 9.65156 13.4467 12.0586 13.1777C12.7444 13.101 13.2954 12.5614 13.3762 11.8703C13.6617 9.42945 13.6617 6.96359 13.3762 4.52269C13.2954 3.83164 12.7444 3.29199 12.0586 3.21535Z" fill="white"/>
</svg>
