<svg width="28" height="28" viewBox="0 0 28 28" fill="none" xmlns="http://www.w3.org/2000/svg">
<path d="M16.5668 3.354C15.1358 3.354 13.7633 3.92249 12.7514 4.93441C11.7395 5.94632 11.171 7.31877 11.171 8.74984V11.754H8.2835C8.13852 11.754 8.021 11.8715 8.021 12.0165V15.9832C8.021 16.1281 8.13852 16.2457 8.2835 16.2457H11.171V24.3832C11.171 24.5281 11.2885 24.6457 11.4335 24.6457H15.4002C15.5451 24.6457 15.6627 24.5281 15.6627 24.3832V16.2457H18.5757C18.6962 16.2457 18.8012 16.1637 18.8304 16.0468L19.8221 12.0802C19.8635 11.9145 19.7382 11.754 19.5674 11.754H15.6627V8.74984C15.6627 8.51004 15.7579 8.28006 15.9275 8.1105C16.0971 7.94093 16.327 7.84567 16.5668 7.84567H19.6002C19.7451 7.84567 19.8627 7.72814 19.8627 7.58317V3.6165C19.8627 3.47153 19.7451 3.354 19.6002 3.354H16.5668Z" fill="white" fill-opacity="0.54"/>
</svg>
