<svg width="609" height="213" viewBox="0 0 609 213" fill="none" xmlns="http://www.w3.org/2000/svg">
<g filter="url(#filter0_d_249_520)">
<path d="M102.315 -21.3172C94.9647 -13.9672 90.8355 -3.99838 90.8355 6.39613C90.8355 16.7906 94.9647 26.7594 102.315 34.1094L117.744 49.539L102.914 64.3694C102.169 65.114 102.169 66.3212 102.914 67.0658L123.287 87.4388C124.032 88.1834 125.239 88.1834 125.983 87.4388L140.814 72.6085L182.608 114.403C183.353 115.148 184.56 115.148 185.305 114.403L205.678 94.0301C206.423 93.2855 206.423 92.0783 205.678 91.3337L163.883 49.539L178.845 34.5773C179.464 33.9586 179.582 32.9983 179.132 32.2481L163.852 6.78182C163.214 5.71816 161.746 5.53745 160.869 6.41457L140.814 26.4696L125.384 11.04C124.153 9.80835 123.461 8.13791 123.461 6.39612C123.461 4.65434 124.153 2.9839 125.384 1.75227L140.964 -13.8271C141.708 -14.5717 141.708 -15.7789 140.964 -16.5235L120.591 -36.8966C119.846 -37.6412 118.639 -37.6412 117.894 -36.8966L102.315 -21.3172Z" fill="url(#paint0_linear_249_520)"/>
</g>
<g filter="url(#filter1_d_249_520)">
<path d="M308.681 -38.7083C308.775 -39.6504 307.572 -40.1029 306.979 -39.3652C302.762 -34.1232 297.905 -29.4246 292.518 -25.3809C296.742 -32.9562 298.332 -41.6931 297.083 -50.2289C296.956 -51.0984 295.819 -51.2841 295.365 -50.5315C291.283 -43.7616 286.196 -37.6466 280.274 -32.3977C280.026 -32.1779 279.681 -32.1064 279.364 -32.2006C271.256 -34.6082 262.579 -34.3188 254.643 -31.3676C246.54 -28.3544 239.666 -22.7369 235.099 -15.396C230.532 -8.0551 228.531 0.593878 229.41 9.1945C230.245 17.372 233.639 25.0661 239.091 31.1893C239.514 31.6643 239.385 32.4175 238.816 32.7008C225.284 39.4316 210.514 43.3261 195.414 44.1395C180.352 44.9509 165.287 42.6792 151.142 37.4693C150.514 37.2381 149.845 37.7014 149.871 38.3699C150.119 44.8027 151.932 51.0856 155.162 56.6707C158.362 62.2383 162.89 66.9281 168.341 70.3226C173.792 73.7172 179.999 75.7111 186.407 76.1268C181.424 78.8259 175.913 80.3904 170.268 80.7171C169.541 80.7592 169.098 81.5532 169.491 82.1666C174.066 89.303 181.009 95.1109 188.93 98.0689C197.359 101.217 206.617 101.356 215.137 98.4642C212.712 101.058 209.93 103.294 206.875 105.104C205.191 106.05 203.449 106.891 201.661 107.622C200.998 107.892 200.833 108.766 201.384 109.223C207.222 114.072 214.355 117.126 221.917 117.995C230.002 118.924 238.175 117.31 245.3 113.378C238.806 129.61 227.066 143.201 211.95 151.984C210.398 152.888 208.814 153.735 207.201 154.525C206.293 154.97 206.563 156.367 207.575 156.379C227.381 156.616 246.913 151.509 264.099 141.559C276.873 134.36 288.084 124.688 297.078 113.107C306.071 101.527 312.667 88.2703 316.481 74.1121C320.294 59.9539 321.247 45.1778 319.286 30.6469C317.325 16.1161 312.488 2.12162 305.057 -10.5189L302.773 -14.476C302.622 -14.7363 302.604 -15.0523 302.721 -15.3292C305.876 -22.7822 307.884 -30.6647 308.681 -38.7083Z" fill="url(#paint1_linear_249_520)"/>
</g>
<g filter="url(#filter2_d_249_520)">
<path fill-rule="evenodd" clip-rule="evenodd" d="M386.104 -62.7444C378.985 -58.6342 375.028 -51.1508 375.085 -43.4787L342.283 -32.5617C339.097 -31.5015 337.1 -28.3434 337.508 -25.011C338.707 -15.2046 340.576 -0.371142 342.282 12.2588C343.034 17.8219 343.758 22.9867 344.382 27.1164C329.198 36.8933 317.083 49.2914 308.889 62.6527C300.78 59.1017 291.146 59.3149 282.882 64.0862C269.088 72.0499 264.362 89.6875 272.326 103.481C278.02 113.344 288.651 118.563 299.288 117.836C300.389 121.378 301.883 124.821 303.791 128.127C313.388 144.75 331.243 154.008 351.641 156.047C372.049 158.086 395.397 152.987 416.992 140.519C438.587 128.051 454.677 110.381 463.115 91.6878C471.549 73.0026 472.458 52.9114 462.861 36.2884C460.952 32.9826 458.717 29.9681 456.2 27.2436C462.147 18.397 462.945 6.57973 457.25 -3.28481C449.286 -17.0782 431.648 -21.8042 417.855 -13.8406C409.591 -9.06916 404.589 -0.831901 403.61 7.96586C388.743 8.36011 372.861 12.2454 357.557 19.6995C357.149 16.8414 356.713 13.6882 356.265 10.3694C354.875 0.0797797 353.374 -11.7016 352.219 -20.9977L379.718 -30.1494C386.36 -21.5748 398.48 -19.0104 408.136 -24.5849C418.673 -30.6687 422.284 -44.1429 416.2 -54.6803C410.116 -65.2178 396.642 -68.8282 386.104 -62.7444ZM390.26 -39.7039C388.072 -43.4927 389.371 -48.3373 393.159 -50.5248C396.948 -52.7122 401.793 -51.4141 403.98 -47.6253C406.168 -43.8366 404.869 -38.9919 401.081 -36.8045C397.292 -34.617 392.447 -35.9152 390.26 -39.7039ZM445.211 18.1841C437.238 13.1938 427.845 10.0344 417.748 8.68782C418.456 4.50427 420.958 0.660977 424.91 -1.62096C431.955 -5.68822 440.963 -3.27452 445.03 3.77019C447.687 8.3728 447.581 13.8246 445.211 18.1841ZM302.445 75.2579C298.468 73.7795 293.889 74.024 289.937 76.3059C282.892 80.3731 280.478 89.3812 284.546 96.4259C287.204 101.03 291.979 103.661 296.937 103.79C296.602 94.3897 298.563 84.675 302.445 75.2579ZM412.143 65.5701C418.655 61.8105 420.886 53.4837 417.127 46.9718C413.367 40.4599 405.04 38.2288 398.528 41.9884C392.016 45.7481 389.785 54.0748 393.545 60.5867C397.305 67.0987 405.631 69.3298 412.143 65.5701ZM359.45 80.2715C363.21 86.7834 360.978 95.1102 354.466 98.8698C347.955 102.629 339.628 100.398 335.868 93.8864C332.109 87.3745 334.34 79.0478 340.852 75.2881C347.363 71.5285 355.69 73.7596 359.45 80.2715ZM365.575 110.721C361.681 110.568 358.401 113.601 358.249 117.494C358.096 121.387 361.129 124.667 365.022 124.82L368.855 124.97C393.307 125.928 416.134 112.749 427.53 91.094L429.317 87.6992C431.131 84.2512 429.807 79.985 426.359 78.1704C422.911 76.3558 418.645 77.68 416.83 81.128L415.044 84.5228C406.18 101.366 388.426 111.616 369.408 110.871L365.575 110.721Z" fill="url(#paint2_linear_249_520)"/>
</g>
<g filter="url(#filter3_d_249_520)">
<path fill-rule="evenodd" clip-rule="evenodd" d="M496.289 87.891L496.299 87.8856L496.571 87.7491L576.313 27.1529L576.524 26.9141C578.148 25.0823 578.888 22.8833 578.265 20.6187C577.72 18.6366 576.291 17.2633 575.182 16.4212C574.009 15.5306 572.73 14.8864 571.81 14.4789C571.337 14.2693 570.928 14.1087 570.631 13.9985C570.482 13.9432 570.36 13.9001 570.27 13.8693L570.182 13.8394L460.611 -26.3238L460.581 -26.3356C460.523 -26.3585 460.446 -26.3883 460.352 -26.4232C460.164 -26.4927 459.904 -26.5835 459.591 -26.6803C458.975 -26.8704 458.097 -27.1009 457.108 -27.2249C455.429 -27.4354 451.939 -27.5047 449.895 -24.5217C448.202 -22.0508 448.483 -19.2793 448.869 -17.6318C449.075 -16.7487 449.355 -15.9962 449.579 -15.4673C449.693 -15.1994 449.796 -14.9796 449.876 -14.8186C449.916 -14.7379 449.95 -14.6714 449.977 -14.6203L450.011 -14.5553L450.033 -14.5137L460.014 2.88207C459.175 3.73201 458.457 4.72045 457.898 5.82803L441.068 39.1721C439.072 43.1257 439.993 47.9276 443.31 50.8626C446.282 53.4934 450.51 54.0313 454.006 52.3419L475.672 50.3065L481.796 81.8869L481.962 82.2463C483.027 84.5422 484.436 86.2195 486.098 87.3311C487.758 88.4411 489.485 88.863 490.996 88.9392C492.482 89.0141 493.774 88.7571 494.673 88.4981C495.13 88.3665 495.506 88.2283 495.78 88.1168C495.918 88.0609 496.032 88.011 496.12 87.9711L496.231 87.9189L496.272 87.8991L496.289 87.891ZM466.599 10.2195C466.981 9.46164 467.81 9.03849 468.648 9.17321L544.052 21.2946C544.052 21.2946 548.416 22.0868 546.788 23.7197C546.788 23.7197 547.025 24.4729 544.247 24.5437C541.61 24.6127 480.475 27.2216 474.289 27.4857C473.932 27.501 473.628 27.6123 473.331 27.811L449.769 43.5635L466.599 10.2195Z" fill="url(#paint3_linear_249_520)"/>
</g>
<defs>
<filter id="filter0_d_249_520" x="-18" y="-111.267" width="323.619" height="323.619" filterUnits="userSpaceOnUse" color-interpolation-filters="sRGB">
<feFlood flood-opacity="0" result="BackgroundImageFix"/>
<feColorMatrix in="SourceAlpha" type="matrix" values="0 0 0 0 0 0 0 0 0 0 0 0 0 0 0 0 0 0 127 0" result="hardAlpha"/>
<feOffset dy="4"/>
<feGaussianBlur stdDeviation="9"/>
<feComposite in2="hardAlpha" operator="out"/>
<feColorMatrix type="matrix" values="0 0 0 0 0.168627 0 0 0 0 0.109804 0 0 0 0 0.0862745 0 0 0 0.35 0"/>
<feBlend mode="normal" in2="BackgroundImageFix" result="effect1_dropShadow_249_520"/>
<feBlend mode="normal" in="SourceGraphic" in2="effect1_dropShadow_249_520" result="shape"/>
</filter>
<filter id="filter1_d_249_520" x="88.1709" y="-107.492" width="334.195" height="334.195" filterUnits="userSpaceOnUse" color-interpolation-filters="sRGB">
<feFlood flood-opacity="0" result="BackgroundImageFix"/>
<feColorMatrix in="SourceAlpha" type="matrix" values="0 0 0 0 0 0 0 0 0 0 0 0 0 0 0 0 0 0 127 0" result="hardAlpha"/>
<feOffset dy="4"/>
<feGaussianBlur stdDeviation="5.5"/>
<feComposite in2="hardAlpha" operator="out"/>
<feColorMatrix type="matrix" values="0 0 0 0 0.168627 0 0 0 0 0.109804 0 0 0 0 0.0862745 0 0 0 0.33 0"/>
<feBlend mode="normal" in2="BackgroundImageFix" result="effect1_dropShadow_249_520"/>
<feBlend mode="normal" in="SourceGraphic" in2="effect1_dropShadow_249_520" result="shape"/>
</filter>
<filter id="filter2_d_249_520" x="200.267" y="-107" width="338.395" height="338.394" filterUnits="userSpaceOnUse" color-interpolation-filters="sRGB">
<feFlood flood-opacity="0" result="BackgroundImageFix"/>
<feColorMatrix in="SourceAlpha" type="matrix" values="0 0 0 0 0 0 0 0 0 0 0 0 0 0 0 0 0 0 127 0" result="hardAlpha"/>
<feOffset dy="4"/>
<feGaussianBlur stdDeviation="7.5"/>
<feComposite in2="hardAlpha" operator="out"/>
<feColorMatrix type="matrix" values="0 0 0 0 0.168627 0 0 0 0 0.109804 0 0 0 0 0.0862745 0 0 0 0.44 0"/>
<feBlend mode="normal" in2="BackgroundImageFix" result="effect1_dropShadow_249_520"/>
<feBlend mode="normal" in="SourceGraphic" in2="effect1_dropShadow_249_520" result="shape"/>
</filter>
<filter id="filter3_d_249_520" x="376.267" y="-95.9998" width="244.139" height="244.139" filterUnits="userSpaceOnUse" color-interpolation-filters="sRGB">
<feFlood flood-opacity="0" result="BackgroundImageFix"/>
<feColorMatrix in="SourceAlpha" type="matrix" values="0 0 0 0 0 0 0 0 0 0 0 0 0 0 0 0 0 0 127 0" result="hardAlpha"/>
<feOffset dy="4"/>
<feGaussianBlur stdDeviation="6"/>
<feComposite in2="hardAlpha" operator="out"/>
<feColorMatrix type="matrix" values="0 0 0 0 0.168627 0 0 0 0 0.109804 0 0 0 0 0.0862745 0 0 0 0.41 0"/>
<feBlend mode="normal" in2="BackgroundImageFix" result="effect1_dropShadow_249_520"/>
<feBlend mode="normal" in="SourceGraphic" in2="effect1_dropShadow_249_520" result="shape"/>
</filter>
<linearGradient id="paint0_linear_249_520" x1="88.8326" y1="-7.83504" x2="198.188" y2="101.52" gradientUnits="userSpaceOnUse">
<stop stop-color="#E9861D"/>
<stop offset="1" stop-color="#E24C0A"/>
</linearGradient>
<linearGradient id="paint1_linear_249_520" x1="217.804" y1="-10.7302" x2="295.324" y2="123.538" gradientUnits="userSpaceOnUse">
<stop stop-color="#E9861D"/>
<stop offset="1" stop-color="#E24C0A"/>
</linearGradient>
<linearGradient id="paint2_linear_249_520" x1="321.255" y1="-25.3035" x2="416.992" y2="140.519" gradientUnits="userSpaceOnUse">
<stop stop-color="#E9861D"/>
<stop offset="1" stop-color="#E24C0A"/>
</linearGradient>
<linearGradient id="paint3_linear_249_520" x1="532.919" y1="-21.0809" x2="457.787" y2="63.6931" gradientUnits="userSpaceOnUse">
<stop stop-color="#E9861D"/>
<stop offset="1" stop-color="#E24C0A"/>
</linearGradient>
</defs>
</svg>
