<svg width="37" height="37" viewBox="0 0 37 37" fill="none" xmlns="http://www.w3.org/2000/svg">
<path d="M18.4999 12.1354C14.9849 12.1354 12.1353 14.9849 12.1353 18.5C12.1353 22.0151 14.9849 24.8646 18.4999 24.8646C22.015 24.8646 24.8645 22.0151 24.8645 18.5C24.8645 14.9849 22.015 12.1354 18.4999 12.1354Z" fill="#D7D3D1"/>
<path fill-rule="evenodd" clip-rule="evenodd" d="M8.25694 1.03453C15.0095 0.279831 21.9904 0.279831 28.743 1.03453C32.4607 1.45004 35.4592 4.37927 35.8956 8.11C36.703 15.0131 36.703 21.9868 35.8956 28.89C35.4592 32.6207 32.4607 35.5499 28.743 35.9654C21.9904 36.7201 15.0095 36.7201 8.25694 35.9654C4.53925 35.5499 1.54066 32.6207 1.10432 28.89C0.296933 21.9868 0.296933 15.0131 1.10432 8.11C1.54066 4.37927 4.53925 1.45004 8.25694 1.03453ZM28.2916 6.74999C27.21 6.74999 26.3333 7.62676 26.3333 8.70832C26.3333 9.78988 27.21 10.6667 28.2916 10.6667C29.3732 10.6667 30.2499 9.78988 30.2499 8.70832C30.2499 7.62676 29.3732 6.74999 28.2916 6.74999ZM9.19785 18.5C9.19785 13.3626 13.3625 9.1979 18.4999 9.1979C23.6373 9.1979 27.802 13.3626 27.802 18.5C27.802 23.6374 23.6373 27.8021 18.4999 27.8021C13.3625 27.8021 9.19785 23.6374 9.19785 18.5Z" fill="#D7D3D1"/>
</svg>
