<svg width="44" height="47" viewBox="0 0 44 47" fill="none" xmlns="http://www.w3.org/2000/svg">
<path d="M36.4978 23.4447C36.3566 19.8451 34.7278 18.9151 34.7278 18.9151L22.6223 18.505H22.6045L10.498 18.9151C10.498 18.9151 8.8703 19.8451 8.72803 23.4447C8.72803 23.4447 9.43519 22.7815 9.95301 22.7124C9.95301 22.7124 8.09514 30.3772 14.5653 36.7113C14.428 36.3572 14.3178 35.9932 14.2357 35.6223C14.2357 35.6223 15.3864 37.3756 18.4201 38.8652C21.2383 40.2492 22.4497 45.5435 22.6045 46.2737V46.3584C22.6045 46.3584 22.6045 46.3438 22.6129 46.3155L22.6223 46.3584V46.2737C22.7771 45.5414 23.9875 40.2492 26.8067 38.8652C29.8404 37.3756 30.9911 35.6223 30.9911 35.6223C30.9085 35.9943 30.7977 36.3594 30.6595 36.7145C37.1296 30.3803 35.2717 22.7156 35.2717 22.7156C35.7906 22.7815 36.4978 23.4447 36.4978 23.4447Z" fill="#666467"/>
<path d="M2.41478 9.15602C2.41478 9.15602 2.18777 7.7145 11.7167 8.95831C21.2456 10.2021 9.70713 14.5026 6.16504 13.4C2.62295 12.2975 2.41478 9.15602 2.41478 9.15602Z" fill="#4F0C19"/>
<path d="M24.722 19.4936C20.1087 19.4936 13.5078 18.8994 5.10448 16.6335L4.89526 16.5771L5.3137 11.2325L5.61498 11.3089C5.65682 11.3194 9.96675 12.3989 16.4745 12.7734C22.476 13.1176 31.6283 12.9136 41.1489 9.98977L41.9763 9.73557L35.0888 18.1473L35.024 18.1724C34.9194 18.2111 32.4412 19.139 27.4921 19.4193C26.6709 19.4643 25.743 19.4936 24.722 19.4936ZM5.44865 16.1848C15.5215 18.8774 22.9562 19.1473 27.4303 18.8973C31.8825 18.6483 34.3576 17.8512 34.775 17.7048L40.4825 10.7346C31.1827 13.445 22.3086 13.6312 16.4327 13.2933C10.8591 12.9732 6.88076 12.1364 5.78863 11.8863L5.44865 16.1848Z" fill="#492222"/>
<path d="M18.6818 18.958C18.6818 18.958 11.2692 16.8982 7.04817 11.7399C3.04266 6.8546 1.76119 9.05141 1.47351 10.0975C1.18583 11.1436 -0.105056 14.7202 5.60142 16.6105C11.5161 18.5709 17.2696 19.1986 18.6818 18.958Z" fill="#A80002"/>
<path d="M17.916 19.2655C15.738 19.2655 10.7241 18.5835 5.51868 16.8595C-0.190928 14.9671 0.845756 11.3528 1.18155 10.1676C1.1962 10.1164 1.2098 10.0703 1.22131 10.0285C1.33219 9.62468 1.69205 8.66855 2.63772 8.45933C3.80412 8.21245 5.35758 9.2596 7.24998 11.5736C11.3685 16.6011 18.6776 18.6808 18.7571 18.7006L19.8827 19.0145L18.732 19.2101C18.4619 19.2507 18.189 19.2692 17.916 19.2655ZM2.98712 8.95204C2.9063 8.95154 2.82564 8.9596 2.74652 8.9761C2.08225 9.11733 1.81131 9.85587 1.72553 10.1666C1.71402 10.2105 1.69937 10.2586 1.68473 10.3109C1.34684 11.492 0.450331 14.6282 5.68397 16.3626C10.3328 17.9035 14.7986 18.6054 17.1764 18.7278C14.7861 17.8418 9.94368 15.6942 6.84514 11.9104C4.89416 9.52844 3.69324 8.95204 2.98712 8.95204Z" fill="#492222"/>
<path d="M28.2924 0.252664C28.5319 0.252664 28.784 0.261033 29.0508 0.276725C31.9506 0.451423 33.2624 3.02797 33.8252 5.82942C35.2081 5.01303 36.6881 4.3734 38.2303 3.92552C38.2303 3.92552 38.3422 5.64531 37.8987 8.55346C38.518 8.49279 39.154 8.45722 39.8047 8.45722C40.4509 8.45582 41.0965 8.4946 41.7379 8.57334C41.7896 8.57512 41.8411 8.58177 41.8917 8.59321C42.8813 8.80243 43.2453 10.5076 43.3175 11.039C43.6679 13.625 43.2066 14.7213 41.2253 15.8511C39.6561 16.7444 37.8778 17.4024 36.0889 17.8868C36.1151 18.4098 36.1025 18.5636 35.9111 18.7582C35.6896 18.9777 35.488 19.2165 35.3086 19.4716C35.7919 20.0836 36.4132 21.2824 36.498 23.4468C36.498 23.4468 35.7908 22.7835 35.274 22.7145C35.274 22.7145 36.5806 28.1092 33.1818 33.5877L33.1714 33.6044C33.1327 33.6672 33.0919 33.7299 33.0511 33.7937L33.0061 33.8638L32.8847 34.0532L32.8607 34.0887C32.7854 34.2017 32.7069 34.3137 32.6274 34.4256L32.5489 34.5354L32.4443 34.6819C32.413 34.7258 32.3795 34.7687 32.347 34.8126L32.2424 34.9445C32.1807 35.025 32.1169 35.1056 32.052 35.1861L31.9663 35.2907C31.9202 35.3472 31.8732 35.4037 31.8261 35.4591L31.7361 35.5637C31.6796 35.6335 31.6221 35.7004 31.5635 35.7646L31.5049 35.8305C31.4275 35.9184 31.348 36.0052 31.2675 36.092L31.1942 36.1705C31.1315 36.2374 31.0677 36.3044 31.0039 36.3703L30.9264 36.4508C30.8396 36.5398 30.7507 36.6287 30.6607 36.7165C30.7986 36.3608 30.9091 35.995 30.9913 35.6223L30.9861 35.6297L30.9767 35.6432L30.9714 35.6506L30.9568 35.6704V35.6778L30.9359 35.706V35.7123L30.9076 35.7489C30.6168 36.1297 29.6628 37.248 27.7693 38.3464C27.4754 38.5179 27.1605 38.6874 26.8205 38.8548C24.0013 40.2388 22.7909 45.5331 22.6361 46.2632V46.348L22.6267 46.3051C22.6215 46.3333 22.6183 46.348 22.6183 46.348V46.2632C22.4635 45.531 21.2521 40.2388 18.4339 38.8548C18.0856 38.6832 17.7623 38.5085 17.4621 38.3317C17.392 38.2899 17.3219 38.2491 17.2529 38.2072H17.2456L17.0447 38.0828C15.4463 37.0743 14.6178 36.1025 14.35 35.752L14.3238 35.7175L14.3186 35.7102L14.2987 35.683L14.2924 35.6746L14.2778 35.6548V35.6485C14.2778 35.6432 14.2704 35.6391 14.2684 35.6349V35.6286V35.6223C14.3503 35.9942 14.4604 36.3593 14.5979 36.7145C14.5079 36.6266 14.419 36.5377 14.3322 36.4487L14.2558 36.3703C14.1909 36.3033 14.1271 36.2353 14.0633 36.1684L13.9943 36.0931C13.9137 36.0073 13.8353 35.9215 13.7589 35.8347C13.7348 35.8075 13.7118 35.7803 13.6878 35.7541L13.5288 35.569L13.4346 35.4591L13.2976 35.2928L13.1741 35.1401L13.0277 34.9549L12.9158 34.8074L12.8342 34.7028C12.7944 34.6495 12.7547 34.5982 12.7159 34.5417L12.6762 34.4852C12.5883 34.3639 12.5025 34.2415 12.4199 34.1191L12.3948 34.0825C12.3498 34.0155 12.3059 33.9475 12.2619 33.8806L12.2431 33.8513C8.6372 28.286 9.98563 22.7197 9.98563 22.7197C9.46781 22.7856 8.76065 23.452 8.76065 23.452C8.84433 21.3368 9.44061 20.1442 9.91868 19.5197C9.73468 19.2483 9.52445 18.9957 9.29102 18.7655C9.06506 18.5353 9.08912 18.347 9.12783 17.5834C8.05767 17.3072 6.95299 16.9861 5.84307 16.6178C0.104173 14.7202 1.39506 11.1436 1.68274 10.0975C1.82396 9.58282 2.20579 8.79197 3.03325 8.69992C3.47052 8.56497 4.21534 8.45304 5.48635 8.45304C5.99476 8.45304 6.5879 8.47082 7.27937 8.51266C7.05277 6.99355 6.92592 5.46122 6.89963 3.92552C6.89963 3.92552 8.72403 4.27596 10.901 5.57208C11.4931 2.8721 12.8111 0.446193 15.622 0.276725C15.8888 0.259987 16.1451 0.252664 16.3804 0.252664C19.4288 0.252664 20.3839 1.463 22.3369 1.46719C24.29 1.47137 25.243 0.252664 28.2924 0.252664ZM28.2924 -0.270386C26.5056 -0.270386 25.4083 0.121901 24.4406 0.46816C23.7282 0.722362 23.1121 0.943089 22.3348 0.944136C21.5576 0.945182 20.9446 0.722362 20.2322 0.46816C19.2635 0.121901 18.1672 -0.270386 16.3815 -0.270386C16.1262 -0.270386 15.8584 -0.262017 15.5906 -0.24528C14.1365 -0.157407 12.9335 0.480713 12.0172 1.65339C11.3895 2.45052 10.9041 3.49871 10.5578 4.77704C8.60791 3.73094 7.0691 3.42548 7.00111 3.41711L6.37345 3.29577L6.38495 3.94016C6.40869 5.28538 6.50753 6.62822 6.681 7.96242C6.26256 7.94463 5.85981 7.93522 5.49472 7.93522C4.3754 7.93522 3.51446 8.021 2.93283 8.19151C2.11164 8.30554 1.46201 8.96458 1.18689 9.9636C1.17538 10.0054 1.16283 10.0515 1.14818 10.1006C0.972436 10.7147 0.607347 11.993 1.05822 13.3624C1.59591 15.0142 3.14728 16.2779 5.64641 17.1064C6.5879 17.4202 7.56077 17.7089 8.55247 17.9736C8.5326 18.4966 8.56816 18.8011 8.88513 19.1243C9.02322 19.2645 9.14456 19.3984 9.24394 19.5187C8.77215 20.2635 8.28153 21.4916 8.20621 23.4227L8.156 24.6979L9.08598 23.8255C9.13933 23.7753 9.20315 23.7209 9.27219 23.6654C9.18104 24.5145 9.15935 25.3695 9.20733 26.2221C9.36015 29.0363 10.2439 31.762 11.7713 34.1306L11.7786 34.1411L11.7912 34.1609L11.9282 34.3701L11.946 34.3953L11.9544 34.4089C12.0402 34.5344 12.1291 34.662 12.218 34.7865L12.2337 34.8085L12.2598 34.844C12.2996 34.9005 12.3414 34.956 12.3822 35.0114C12.4105 35.048 12.4377 35.0857 12.4659 35.1233L12.582 35.275C12.6312 35.3388 12.6814 35.4026 12.7327 35.4654C12.7839 35.5282 12.8174 35.57 12.8603 35.6234C12.9032 35.6767 12.9534 35.7384 13.0015 35.7949L13.0978 35.909C13.1522 35.9728 13.2024 36.0355 13.262 36.0983L13.2882 36.1286L13.3352 36.182C13.4116 36.2678 13.4932 36.3577 13.5779 36.4487C13.5936 36.4665 13.6093 36.4833 13.6261 36.5L13.6501 36.5262C13.715 36.5959 13.7809 36.6656 13.8478 36.7354L13.8604 36.749L13.9263 36.817C14.0309 36.9216 14.1156 37.0084 14.1993 37.0911L15.9536 38.8087L15.4912 37.6371C15.8938 37.9601 16.3146 38.2594 16.7518 38.5336L16.961 38.6623H16.9662C17.0384 38.7052 17.1085 38.7481 17.1755 38.7899C17.5019 38.9803 17.8397 39.1613 18.1808 39.3287C20.727 40.5787 21.8997 45.532 22.0723 46.3239L22.6037 47.1231L23.1361 46.3239C23.3087 45.532 24.4804 40.5787 27.0276 39.3287C27.3592 39.1655 27.6888 38.9897 28.0089 38.8056C28.6101 38.4585 29.1843 38.0664 29.7266 37.6329L29.2673 38.7983L31.0279 37.0869C31.1116 37.0042 31.1984 36.9164 31.3009 36.8117C31.3229 36.7898 31.3449 36.7678 31.3658 36.7448L31.3805 36.7301C31.4474 36.6611 31.5123 36.5931 31.5771 36.5209L31.6012 36.4958L31.6524 36.4404C31.7414 36.3441 31.8219 36.2563 31.8972 36.1705L31.9338 36.1286L31.9569 36.1025L32.1357 35.8933L32.2288 35.7834L32.3722 35.6087L32.3983 35.5773L32.4611 35.4999C32.528 35.4162 32.5939 35.3336 32.6577 35.2499C32.6849 35.2154 32.7111 35.1809 32.7372 35.1453L32.7603 35.115L32.8649 34.979L32.9758 34.8283C32.9998 34.7949 33.0239 34.7624 33.0469 34.729L33.0563 34.7154C33.14 34.5971 33.2216 34.48 33.298 34.367L33.3063 34.3545L33.3231 34.3304L33.4475 34.1411L33.4936 34.0689L33.6181 33.8732L33.6254 33.8607V33.8555C35.0674 31.5197 35.8931 28.8562 36.0251 26.1143C36.0661 25.295 36.0423 24.4737 35.954 23.6581C36.0241 23.7135 36.0879 23.7679 36.1413 23.8181L37.0702 24.6864L37.021 23.4154C36.9436 21.4571 36.4425 20.2206 35.9582 19.4726C36.0513 19.3607 36.1674 19.2394 36.2835 19.117C36.3941 19.0067 36.4811 18.8751 36.5392 18.7301C36.5973 18.5852 36.6252 18.4299 36.6214 18.2738C38.4782 17.7434 40.1122 17.0792 41.4847 16.2967C43.6449 15.0654 44.2161 13.7693 43.8353 10.9616C43.7778 10.5316 43.4169 8.37039 41.9994 8.0733C41.9304 8.05914 41.8605 8.04936 41.7902 8.04401C41.1331 7.96468 40.4718 7.92555 39.8099 7.92685C39.3915 7.92685 38.9563 7.94149 38.5148 7.97078C38.8527 5.43713 38.7617 3.95167 38.7575 3.88472L38.7157 3.23091L38.088 3.41607C36.7345 3.81155 35.4263 4.34837 34.185 5.01765C33.8492 3.68073 33.3639 2.58233 32.7383 1.74754C31.8104 0.517327 30.5791 -0.154269 29.0822 -0.24528C28.8133 -0.262017 28.5466 -0.270386 28.2924 -0.270386Z" fill="#492222"/>
<g clip-path="url(#clip0_171_144)">
<path d="M32.6113 8.10993L31.4805 8.73759L31.4236 9.41232L31.2659 11.265C31.7229 11.9543 32.2798 12.7054 32.8474 13.2526L33.3087 13.1605L35.4996 12.7243C36.7807 9.35688 36.7388 5.9581 36.7388 5.9581C35.2018 6.33185 33.7837 7.07116 32.6113 8.10993Z" fill="#5C585C"/>
<path d="M32.2959 26.9742C32.2959 26.9742 32.2959 27.3927 32.0814 27.6343C32.0814 27.6343 30.8003 21.9425 25.6438 27.2086C22.9562 29.9535 22.2598 27.6898 22.1032 26.8665V26.5966C22.1032 26.5966 22.0978 26.6552 22.0828 26.7493C22.0678 26.6552 22.0624 26.5966 22.0624 26.5966V26.8665C21.9058 27.6898 21.2041 29.9535 18.5218 27.2086C13.3653 21.9425 12.0842 27.6343 12.0842 27.6343C11.8697 27.3885 11.8697 26.9742 11.8697 26.9742C11.0508 28.9466 10.7524 31.0878 11.0017 33.2017C11.7753 34.4914 12.7245 35.6731 13.8234 36.7145C13.6781 36.3597 13.5608 35.9946 13.4726 35.6223C13.4726 35.6223 14.3985 36.9959 16.7675 38.3422C19.0711 38.9814 20.4734 40.2472 20.4734 40.2472C20.4768 39.9063 20.407 39.5685 20.2685 39.2555C21.4487 40.3528 21.924 41.7912 22.056 42.2651V42.4251C22.056 42.4251 22.0624 42.3958 22.0764 42.3414C22.0903 42.3958 22.0967 42.4251 22.0967 42.4251V42.2651C22.2298 41.7912 22.7072 40.3528 23.8853 39.2555C23.7462 39.5683 23.6764 39.9062 23.6804 40.2472C23.6804 40.2472 25.0634 38.9992 27.339 38.3548C29.7252 37.0053 30.6576 35.6223 30.6576 35.6223C30.5729 35.9943 30.4592 36.3594 30.3175 36.7145C31.4299 35.6614 32.3891 34.4647 33.1682 33.1577C33.4085 31.0579 33.1088 28.9328 32.2959 26.9742Z" fill="#AFAFAF"/>
<path d="M26.3477 21.3295C24.1064 20.8744 23.3575 20.8472 22.0775 20.8378H22.056C20.776 20.8472 20.0271 20.8744 17.7858 21.3295C17.7858 21.3295 16.0691 31.0509 22.0582 31.0635H22.07C28.0644 31.0509 26.3477 21.3295 26.3477 21.3295Z" fill="#D8D8D8"/>
<path d="M22.1954 23.4709H22.1858C22.0259 23.4709 19.7384 23.5273 19.8575 24.7429C19.9702 25.8853 20.6086 25.789 20.6086 25.789C20.6086 25.789 20.8843 26.8456 22.1858 27.2065H22.1954C23.4979 26.8456 23.7726 25.789 23.7726 25.789C23.7726 25.789 24.411 25.8853 24.5237 24.7429C24.6438 23.5273 22.3553 23.4729 22.1954 23.4709Z" fill="#333333"/>
<path d="M20.5679 18.3816L19.6624 20.7196L24.7405 20.7677L23.7277 17.9286L20.5679 18.3816Z" fill="#666467"/>
<path d="M35.8528 17.2434C35.8463 17.0966 35.7902 16.9561 35.6931 16.8436C35.5961 16.7312 35.4636 16.6533 35.3163 16.622C31.0901 15.7444 28.279 15.4912 24.439 16.5279C23.3887 16.8114 22.937 16.825 22.0378 16.8187C21.1387 16.8124 20.687 16.8114 19.6377 16.5279C15.758 15.4818 12.9266 15.7569 8.75722 16.622C8.61006 16.6535 8.47768 16.7315 8.38066 16.8438C8.28365 16.9562 8.22743 17.0967 8.22076 17.2434C8.17569 18.2895 8.11346 18.4987 8.37204 18.7582C8.61237 18.9967 8.99219 19.4015 9.1145 19.6913C9.29797 20.1275 9.94172 24.6435 13.7281 24.7314C17.3942 24.8182 18.2343 24.3726 19.2933 22.6748C20.3523 20.9769 20.5486 18.9737 21.1387 18.7132C21.5207 18.5458 22.5529 18.5458 22.9327 18.7132C23.5238 18.9758 23.7245 20.9769 24.7792 22.6748C25.8338 24.3726 26.6793 24.8182 30.3455 24.7335C34.135 24.6435 34.7767 20.1306 34.9591 19.6913C35.0814 19.4015 35.459 18.9967 35.7004 18.7582C35.9644 18.4998 35.8968 18.3125 35.8528 17.2434ZM17.6035 23.383C16.0563 24.5337 13.1895 24.1539 12.521 23.8966C11.8526 23.6393 10.6971 22.7302 10.3237 20.2279C9.95031 17.7257 10.7443 17.2612 11.8183 16.9191C12.8923 16.5771 15.2645 16.4212 17.6228 16.8846C17.6228 16.8846 19.6796 17.2099 19.6613 18.5301C19.6431 19.8503 19.1528 22.2323 17.6035 23.383ZM33.7509 20.2227C33.3808 22.725 32.221 23.6351 31.5525 23.8914C30.8841 24.1477 28.0119 24.5274 26.4701 23.3777C24.9283 22.2281 24.4315 19.8461 24.4122 18.5249C24.3929 17.2037 26.4508 16.8794 26.4508 16.8794C28.8112 16.416 31.1813 16.5655 32.2542 16.9139C33.3271 17.2622 34.1168 17.7194 33.7509 20.2227Z" fill="#56271E"/>
<path d="M33.7507 20.2227C33.3806 22.725 32.2207 23.6351 31.5523 23.8914C30.8839 24.1477 28.0117 24.5274 26.4699 23.3777C24.9281 22.2281 24.4313 19.8461 24.412 18.5249C24.3927 17.2037 26.4506 16.8794 26.4506 16.8794C28.811 16.416 31.1811 16.5655 32.254 16.9139C33.3269 17.2622 34.1166 17.7194 33.7507 20.2227Z" fill="black"/>
<path d="M19.6623 18.5249C19.643 19.8461 19.1526 22.2281 17.6033 23.3778C16.054 24.5274 13.1893 24.1487 12.5209 23.8914C11.8525 23.634 10.6969 22.725 10.3236 20.2227C9.95018 17.7205 10.7441 17.256 11.8181 16.9139C12.8921 16.5718 15.2644 16.416 17.6226 16.8794C17.6226 16.8794 19.6794 17.2047 19.6623 18.5249Z" fill="black"/>
<path d="M31.4432 9.94164C31.4432 9.94164 36.8358 7.92476 41.8377 8.59321L39.7992 13.58L29.0442 14.103L31.4432 9.94164Z" fill="#4F0C19"/>
<path d="M7.15611 12.1207C7.15611 12.1207 6.04134 8.94681 5.948 3.92554C5.948 3.92554 8.70219 4.44022 11.5165 6.54079L12.0776 13.1929L7.15611 12.1207Z" fill="#666467"/>
<path d="M7.40088 6.26984C7.47325 8.36463 7.85892 10.4379 8.54569 12.424L12.0777 13.1929L11.6175 7.68103C9.4566 6.20812 7.40088 6.26984 7.40088 6.26984Z" fill="#5C585C"/>
<path d="M31.5268 7.26364C31.5268 7.26364 33.723 5.18086 38.0823 3.92554C38.0823 3.92554 38.2969 7.20192 36.9386 12.3634L31.2178 13.7139L31.5268 7.26364Z" fill="#666467"/>
<path d="M32.5588 8.16119L31.4516 8.82965L31.3303 11.3643C31.8121 12.037 32.3957 12.7682 32.9826 13.2975L35.6145 12.6762C36.77 9.26691 36.6037 5.87128 36.6037 5.87128C35.0819 6.29665 33.6921 7.08345 32.5588 8.16119Z" fill="#5C585C"/>
<path d="M4.56735 11.5621C4.56735 11.5621 22.1697 15.9243 41.154 10.2387L34.6982 17.9265C34.6982 17.9265 24.4904 21.7218 4.17358 16.3804L4.56735 11.5621Z" fill="#8C0909"/>
<path d="M43.5146 11.039C43.4008 10.2241 42.5854 6.6454 39.8312 9.94166C37.077 13.2379 29.4872 17.8052 24.8103 19.2342C24.8103 19.2342 34.8732 19.4633 41.373 15.8511C43.4008 14.7213 43.874 13.625 43.5146 11.039Z" fill="#B2121E"/>
<path d="M25.1084 19.4978C24.9174 19.4978 24.8101 19.4978 24.7994 19.4978L23.1729 19.4612L24.7264 18.9894C29.5128 17.5248 37.0307 12.8812 39.6229 9.78369C40.5821 8.63298 41.4469 8.1591 42.1904 8.36309C43.4253 8.70307 43.7472 10.7754 43.7805 11.0108C44.1571 13.7202 43.6238 14.9054 41.5016 16.0854C35.652 19.3294 26.8594 19.4978 25.1084 19.4978ZM41.846 8.83383C41.3589 8.83383 40.7398 9.26797 40.0392 10.1069C37.6112 13.0099 31.2702 17.0719 26.4131 18.9517C29.5042 18.8471 36.4084 18.3063 41.2344 15.6241C43.1657 14.5529 43.5949 13.5748 43.2472 11.0746C43.1539 10.3967 42.7805 9.06188 42.0434 8.85999C41.9792 8.84232 41.9127 8.83352 41.846 8.83383Z" fill="#492222"/>
<path d="M15.2108 12.0851C15.2108 12.0851 15.0735 12.0736 14.845 12.0495C14.9656 12.0723 15.088 12.0842 15.2108 12.0851Z" fill="black"/>
<path d="M14.0916 0.996464H14.1151C14.1151 0.989134 14.1028 0.989134 14.0916 0.996464Z" fill="black"/>
<path d="M23.2438 28.9169C22.7341 28.6689 22.5946 28.4702 22.0732 28.4681H22.0646C21.9928 28.4676 21.9211 28.4725 21.85 28.4827C21.7512 28.4975 21.6516 28.5066 21.5518 28.5099C21.3039 28.5099 20.9456 28.5162 20.5947 28.5005C20.0583 28.4775 20.2482 28.9451 20.3125 29.078C19.8544 29.1491 19.3921 29.1924 18.9285 29.2077C18.9285 29.2077 20.216 29.2746 21.0636 28.9984C21.3888 28.8954 21.7264 28.8342 22.0678 28.8164C22.4093 28.8342 22.7469 28.8954 23.0721 28.9984C23.9176 29.2725 25.2072 29.2077 25.2072 29.2077C25.2072 29.2077 23.7555 29.1669 23.2438 28.9169Z" fill="#333333"/>
<path d="M20.6817 28.5842C20.9121 28.5839 21.1417 28.6116 21.3651 28.6668C21.6205 28.7505 21.0229 28.9168 20.5959 29.0005C20.1688 29.0842 20.6817 28.5842 20.6817 28.5842Z" fill="#1E1E1E"/>
<path d="M20.8329 28.6135C20.7683 28.5669 20.6939 28.5348 20.6151 28.5196C20.5362 28.5045 20.4549 28.5065 20.3769 28.5256C20.084 28.5842 18.1506 29.3457 17.0133 30.8103C17.0133 30.8103 16.6915 31.2287 16.906 31.5425C17.2869 32.1001 17.6753 31.7695 17.7773 31.6398C18.803 30.3322 20.7696 29.0047 20.7696 29.0047C20.7696 29.0047 21.0701 28.897 20.8329 28.6135Z" fill="#56271E"/>
<path d="M17.6154 31.9361C17.752 31.8596 17.7578 31.6194 17.6283 31.3998C17.4989 31.1801 17.2831 31.0641 17.1465 31.1407C17.0099 31.2172 17.0041 31.4574 17.1336 31.677C17.2631 31.8967 17.4788 32.0127 17.6154 31.9361Z" fill="#E9861D"/>
<path d="M21.1978 28.6271C21.1978 28.6271 21.9778 28.4492 22.2857 28.5842C22.5936 28.7191 22.9144 28.8227 22.9144 28.8227C22.9144 28.8227 21.9864 28.6658 21.216 28.7965L21.1978 28.6271Z" fill="#1E1E1E"/>
<path d="M17.2859 31.4379C17.2859 31.4379 15.2967 30.2056 15.7044 27.241C16.1121 24.3119 15.9008 23.3422 14.4395 22.2019C14.4395 22.2019 16.6432 23.0817 16.1325 26.4554C15.5392 30.3741 17.2859 31.4379 17.2859 31.4379Z" fill="#FCFDFE"/>
<path d="M17.5252 31.2434C17.6551 31.462 17.6497 31.7016 17.5134 31.7779Z" fill="#E9861D"/>
<path d="M22.1323 16.1973C21.9467 16.1973 21.8265 16.1973 21.7815 16.1921C21.7364 16.1869 21.6152 16.1973 21.4296 16.1973C20.023 16.1973 15.0167 15.9933 9.62741 13.3802L9.49866 13.3174L9.4815 13.1772C9.32842 11.7128 9.29004 10.2391 9.36669 8.76897C9.53943 5.52606 10.2658 3.14409 11.5254 1.67432C11.9321 1.18227 12.4413 0.77995 13.0192 0.49395C13.5972 0.20795 14.2309 0.0447765 14.8783 0.0152105C15.1497 -0.000480953 15.4148 -0.0088501 15.6723 -0.0088501C17.4587 -0.0088501 18.5606 0.375069 19.5348 0.714005C20.2858 0.977622 20.9403 1.20463 21.7879 1.20567C22.6355 1.20672 23.2814 0.977622 24.0357 0.714005C25.0078 0.375069 26.1096 -0.0088501 27.8982 -0.0088501C28.1536 -0.0088501 28.4207 -0.000480953 28.6922 0.0152105C29.3378 0.0462312 29.9693 0.210099 30.5454 0.496047C31.1214 0.781995 31.6288 1.18355 32.0343 1.67432C33.2939 3.13886 34.0203 5.53129 34.193 8.76897C34.2697 10.2391 34.2313 11.7128 34.0782 13.1772L34.0611 13.3174L33.9323 13.3802C28.543 15.9954 23.5368 16.1973 22.1302 16.1973H22.1323Z" fill="#A80002"/>
<path d="M27.8894 0.252664C28.1351 0.252664 28.3936 0.261033 28.6672 0.276725C35.3397 0.670058 33.8173 13.1437 33.8173 13.1437C28.4623 15.7412 23.4893 15.9337 22.1353 15.9337C21.9368 15.9337 21.8134 15.9337 21.7834 15.9274C21.7533 15.9211 21.6289 15.9337 21.4304 15.9337C20.0753 15.9337 15.1001 15.7412 9.7484 13.1437C9.7484 13.1437 8.22377 0.667966 14.8984 0.276725C15.172 0.259987 15.4349 0.252664 15.6763 0.252664C18.8028 0.252664 19.7824 1.463 21.7855 1.46719C23.7887 1.47137 24.7661 0.252664 27.8937 0.252664M27.8937 -0.270386C26.0611 -0.270386 24.9356 0.121901 23.9432 0.46816C23.2125 0.722362 22.5805 0.943089 21.7834 0.944136C20.9862 0.945182 20.3575 0.722362 19.6268 0.46816C18.6333 0.121901 17.5088 -0.270386 15.6774 -0.270386C15.4156 -0.270386 15.1409 -0.262017 14.8662 -0.24528C14.1825 -0.214042 13.5134 -0.0417049 12.903 0.260346C12.2927 0.562396 11.755 0.987284 11.3256 1.50694C8.26776 5.07623 9.17975 12.877 9.22052 13.2076L9.25485 13.4879L9.5145 13.6145C14.9564 16.2528 20.0152 16.4588 21.4357 16.4588C21.6128 16.4588 21.7308 16.4588 21.7887 16.4536C21.8467 16.4484 21.9636 16.4588 22.1407 16.4588C23.5612 16.4588 28.62 16.2496 34.0619 13.6145L34.3215 13.4879L34.3559 13.2076C34.3956 12.877 35.3086 5.07623 32.2508 1.50694C31.8213 0.987284 31.2837 0.562396 30.6733 0.260346C30.063 -0.0417049 29.3939 -0.214042 28.7102 -0.24528C28.4344 -0.262017 28.1608 -0.270386 27.9001 -0.270386H27.8937Z" fill="#492222"/>
<path d="M25.1086 11.6667C26.0039 9.66783 26.7389 7.60432 27.3071 5.49469C27.3425 5.35587 27.4317 5.23579 27.5559 5.15957C27.68 5.08334 27.8296 5.05686 27.9733 5.08567C29.2749 5.34716 30.5401 5.758 31.7425 6.3096C31.8595 6.3645 31.9539 6.4565 32.0102 6.57053C32.0665 6.68456 32.0815 6.81387 32.0526 6.93726C31.7769 8.08379 30.9614 11.2482 29.8939 13.4555L25.1086 11.6667Z" fill="white"/>
<path d="M29.0934 11.6363L29.0376 11.6164C29.1803 11.198 29.323 10.7921 29.4668 10.3862L29.5226 10.4113C29.3799 10.8151 29.2361 11.2231 29.0934 11.6363ZM29.2007 11.2775C28.5393 11.015 27.8399 10.8544 27.1278 10.8015C27.0924 10.9145 27.0581 11.0285 27.0205 11.1426H26.9658C27.066 10.8099 27.1665 10.48 27.2673 10.153C28.0029 10.2255 28.7223 10.4101 29.3992 10.7001C29.3348 10.8894 29.2683 11.0829 29.2007 11.2775Z" fill="#770A0A"/>
<path d="M29.6148 10.1477L29.559 10.1226C29.7021 9.71953 29.8451 9.32132 29.9882 8.92799L30.0429 8.95728C29.8991 9.34991 29.7564 9.74673 29.6148 10.1477ZM29.7221 9.79729C29.0652 9.48298 28.3635 9.26681 27.6406 9.15603C27.6052 9.26692 27.5709 9.37781 27.5333 9.48869L27.4775 9.48137C27.5798 9.15778 27.6821 8.83663 27.7844 8.51791C28.5293 8.65012 29.249 8.89285 29.9184 9.23763C29.8541 9.4207 29.7875 9.609 29.7199 9.79729H29.7221Z" fill="#770A0A"/>
<path d="M30.412 8.01579C30.3251 8.25744 30.2081 8.40912 30.0601 8.47607C29.9842 8.50891 29.9017 8.52447 29.8188 8.52156C29.7359 8.51866 29.6547 8.49738 29.5815 8.45933C29.435 8.39951 29.3175 8.2872 29.2532 8.1455C29.189 7.96985 29.1848 7.77863 29.2414 7.60049C29.1812 7.75324 29.0736 7.88381 28.9335 7.97394C28.8745 8.00827 28.8086 8.02986 28.7403 8.03726C28.672 8.04466 28.6029 8.03769 28.5376 8.01684C28.4354 7.99007 28.3443 7.93305 28.2769 7.85364C28.2054 7.76607 28.1625 7.65971 28.1535 7.54818C28.1416 7.40172 28.1617 7.25447 28.2125 7.11614C28.2555 6.97297 28.3286 6.84009 28.4271 6.72595C28.5033 6.63568 28.6052 6.56943 28.72 6.53556C28.8259 6.50534 28.939 6.51012 29.0418 6.54916C29.1089 6.57232 29.1698 6.60966 29.2202 6.6585C29.2707 6.70733 29.3094 6.76645 29.3337 6.8316C29.3873 6.99085 29.3907 7.16214 29.3433 7.32327C29.4017 7.15577 29.5233 7.01625 29.6835 6.93308C29.7532 6.9065 29.8284 6.89626 29.9029 6.90316C29.9774 6.91007 30.0493 6.93393 30.1126 6.97283C30.2778 7.06154 30.4007 7.20991 30.4549 7.38604C30.5116 7.59488 30.4965 7.8161 30.412 8.01579ZM30.3583 7.98336C30.365 7.96086 30.3663 7.93716 30.362 7.91411C30.3577 7.89106 30.348 7.86929 30.3336 7.85051C30.2912 7.79217 30.239 7.74124 30.1791 7.69987C30.0934 7.63953 30.003 7.58567 29.9088 7.53877C29.8178 7.49191 29.7231 7.45237 29.6255 7.42056C29.5629 7.39774 29.4956 7.3895 29.4292 7.3965C29.4069 7.39874 29.3858 7.4074 29.3686 7.42138C29.3514 7.43535 29.3389 7.454 29.3326 7.47495C29.3248 7.49657 29.3229 7.51977 29.3271 7.54232C29.3312 7.56486 29.3412 7.58598 29.3562 7.60363C29.4 7.6561 29.4535 7.7001 29.5139 7.73334C29.588 7.77832 29.6792 7.82644 29.7875 7.87875C29.8959 7.93105 29.9892 7.97395 30.0697 8.00428C30.1307 8.03067 30.1962 8.04558 30.2628 8.04822C30.2838 8.049 30.3045 8.04309 30.3217 8.03139C30.339 8.01969 30.3518 8.00282 30.3583 7.98336ZM29.2446 7.44043C29.2493 7.42705 29.2507 7.41278 29.2486 7.39878C29.2466 7.38479 29.2411 7.37146 29.2328 7.35988C29.2011 7.31986 29.1598 7.28791 29.1127 7.26678C29.0202 7.22027 28.924 7.18109 28.8251 7.14962C28.7483 7.12411 28.6703 7.10246 28.5912 7.08476C28.5351 7.07285 28.478 7.06585 28.4206 7.06384C28.3842 7.06102 28.3476 7.06601 28.3133 7.07848C28.302 7.08213 28.2916 7.08827 28.2831 7.09643C28.2745 7.10459 28.268 7.11456 28.264 7.12556C28.2604 7.13638 28.2597 7.14793 28.2619 7.15909C28.2642 7.17026 28.2693 7.18068 28.2769 7.18937C28.299 7.21608 28.3269 7.23783 28.3584 7.25318C28.408 7.27909 28.4592 7.30181 28.5118 7.32118C28.5751 7.34524 28.6513 7.37035 28.7404 7.39859C28.8691 7.44043 28.9678 7.46972 29.0376 7.48542C29.0855 7.49975 29.1362 7.50298 29.1856 7.49483C29.1994 7.49139 29.212 7.4846 29.2223 7.47508C29.2327 7.46556 29.2403 7.45364 29.2446 7.44043Z" fill="#770A0A"/>
<path d="M33.9301 8.82129C27.7071 11.7608 22.0485 11.5788 21.7814 11.5683C21.5131 11.5788 15.8578 11.7608 9.63158 8.82129C9.55824 10.2636 9.59662 11.7092 9.74639 13.1459C15.8835 16.122 21.5174 15.94 21.7814 15.9295C22.0442 15.94 27.6824 16.122 33.8153 13.1459C33.965 11.7092 34.0034 10.2636 33.9301 8.82129Z" fill="#E9861D"/>
<path d="M27.8972 14.4514H27.7405H27.733C27.6708 14.4514 27.5807 14.4514 27.4605 14.442H27.439C27.3227 14.4221 27.2116 14.3798 27.1122 14.3175C27.0129 14.2551 26.9274 14.174 26.8607 14.079C26.7216 13.8898 26.62 13.6769 26.5614 13.4513C26.4998 13.2118 26.4685 12.9659 26.468 12.719C26.468 12.5443 26.4595 12.015 26.8382 11.9146C26.8732 11.9055 26.9093 11.9012 26.9455 11.902C27.0232 11.8517 27.1072 11.8113 27.1955 11.7817C27.2212 11.7755 27.2459 11.7692 27.2727 11.765C27.3146 11.759 27.357 11.7558 27.3993 11.7556C27.5344 11.7596 27.667 11.7919 27.7881 11.8504C27.9092 11.9089 28.0159 11.9922 28.101 12.0945C28.3112 12.3292 28.4613 12.6092 28.5388 12.9115C28.6249 13.1934 28.6443 13.4906 28.5956 13.7808C28.5195 14.1878 28.2941 14.3562 28.1182 14.4252C28.0516 14.4494 27.9811 14.4614 27.91 14.4608L27.8972 14.4514ZM27.4208 12.854C27.4314 12.9705 27.4533 13.0857 27.4862 13.1982C27.5248 13.3469 27.5847 13.4895 27.6643 13.6218L27.674 13.6386C27.674 13.6218 27.674 13.6019 27.674 13.581C27.6683 13.366 27.634 13.1525 27.5721 12.946C27.5538 12.8801 27.5334 12.8184 27.5141 12.7619C27.4911 12.7995 27.4591 12.8311 27.4208 12.854Z" fill="#E9861D"/>
<path d="M27.3971 11.9627C27.5009 11.9676 27.6024 11.994 27.6949 12.0402C27.7874 12.0864 27.8688 12.1513 27.9335 12.2305C28.1201 12.4413 28.2525 12.6923 28.3198 12.9628C28.3974 13.2129 28.4154 13.4769 28.3723 13.7348C28.3262 13.9859 28.2114 14.147 28.0301 14.2181C27.9902 14.2322 27.948 14.239 27.9056 14.238H27.8981H27.7468H27.7425C27.6835 14.238 27.5945 14.238 27.4743 14.2296C27.3873 14.2132 27.3046 14.1801 27.2309 14.1321C27.1572 14.0842 27.094 14.0223 27.0451 13.9503C26.9226 13.7817 26.8334 13.5922 26.7823 13.3917C26.7258 13.1699 26.6973 12.9423 26.6975 12.7138C26.6932 12.3561 26.7619 12.1583 26.9035 12.1207C26.9211 12.1168 26.9391 12.1151 26.9572 12.1154H26.9657C26.9825 12.1168 26.9994 12.1168 27.0162 12.1154C27.0928 12.066 27.1744 12.0243 27.2597 11.991C27.278 11.9857 27.2967 11.9815 27.3155 11.9784C27.345 11.9742 27.3748 11.9721 27.4046 11.9721M27.2876 12.6824C27.2764 12.6818 27.2652 12.6801 27.2544 12.6772C27.2411 12.6735 27.2274 12.6714 27.2136 12.6709H27.2071C27.1875 12.8714 27.2105 13.0737 27.2747 13.2651C27.3179 13.434 27.3862 13.5958 27.4775 13.7453C27.5634 13.8813 27.6492 13.9493 27.734 13.9493H27.7425C27.8455 13.9409 27.897 13.8216 27.897 13.5915C27.8923 13.3571 27.8562 13.1243 27.7897 12.899C27.7504 12.7504 27.695 12.6062 27.6245 12.469C27.5591 12.3487 27.499 12.2891 27.4421 12.2891C27.3853 12.2891 27.3734 12.3519 27.367 12.4774C27.3606 12.6029 27.337 12.6709 27.2973 12.6866H27.2865M27.4035 11.5432C27.3521 11.5435 27.3009 11.5473 27.2501 11.5547H27.2393C27.2064 11.5605 27.1738 11.5678 27.1417 11.5767C27.051 11.6038 26.9644 11.6425 26.8842 11.6918C26.8509 11.6945 26.8178 11.7001 26.7855 11.7085C26.425 11.8048 26.249 12.1468 26.249 12.7243C26.2491 12.9896 26.2829 13.2538 26.3499 13.5109C26.416 13.7642 26.5299 14.0033 26.6857 14.216C26.7696 14.334 26.8769 14.4343 27.0013 14.511C27.1257 14.5878 27.2647 14.6394 27.4099 14.6627H27.4314H27.4518C27.5794 14.669 27.6749 14.6721 27.7425 14.6721H27.8949H27.9088C28.0051 14.6727 28.1007 14.6564 28.191 14.624C28.4185 14.534 28.7103 14.3217 28.8037 13.8164C28.859 13.4949 28.8381 13.1653 28.7425 12.8529C28.6563 12.5177 28.4898 12.2072 28.2565 11.947C28.1506 11.822 28.0184 11.7207 27.8688 11.65C27.7192 11.5792 27.5558 11.5407 27.3895 11.537L27.4035 11.5432Z" fill="#492222"/>
<path d="M29.5793 14.0476C29.5288 14.0476 29.4645 14.0476 29.3808 14.0371C29.3207 14.0371 29.2338 14.0371 29.1168 14.0214H29.1072H29.0975C28.9162 13.989 28.752 13.8635 28.6093 13.649C28.4874 13.4561 28.3963 13.2462 28.339 13.0266C28.252 12.7382 28.2158 12.4376 28.2317 12.1374C28.2585 11.7849 28.3808 11.5516 28.5943 11.4449L28.6072 11.4386C28.631 11.4292 28.6554 11.4212 28.6801 11.4146C28.7537 11.3958 28.8295 11.3867 28.9055 11.3874C28.9802 11.3881 29.0548 11.394 29.1286 11.4052C29.2938 11.4199 29.4511 11.4809 29.5814 11.5809C29.6688 11.658 29.737 11.7535 29.781 11.8602C29.8089 11.9219 29.8292 11.9648 29.84 11.9868V11.992L29.8507 12.0129C29.8636 12.0391 29.8797 12.0715 29.9001 12.1092L29.9065 12.1228L29.9119 12.1353C29.9271 12.1798 29.9326 12.2268 29.928 12.2734C29.9601 12.2849 29.9955 12.2996 30.0352 12.3153C30.1704 12.3749 30.3046 12.4439 30.3314 12.5799C30.3496 12.6511 30.345 12.7259 30.3181 12.7944C30.2912 12.8629 30.2434 12.9217 30.1812 12.9628L30.1672 12.9722C30.1693 13.1168 30.1625 13.2615 30.1468 13.4053C30.1317 13.6132 30.0353 13.8075 29.8775 13.9482C29.8271 13.9895 29.7682 14.0199 29.7048 14.0371C29.6636 14.046 29.6214 14.0495 29.5793 14.0476Z" fill="#E9861D"/>
<path d="M28.9088 11.6008C28.9724 11.6013 29.0359 11.6066 29.0987 11.6165C29.2215 11.6263 29.3392 11.669 29.4388 11.7399C29.5008 11.7965 29.5492 11.8658 29.5804 11.9428C29.6034 11.9971 29.6292 12.0502 29.6577 12.1018C29.6716 12.1311 29.6888 12.1646 29.7102 12.2065C29.7196 12.235 29.7196 12.2658 29.7102 12.2943C29.7044 12.3221 29.6902 12.3476 29.6695 12.3676C29.6168 12.3855 29.5608 12.3919 29.5053 12.3864H29.4463C29.3668 12.3897 29.2873 12.3816 29.2102 12.3623C29.1716 12.3498 29.1459 12.3121 29.1341 12.2483C29.1307 12.2363 29.1307 12.2237 29.1341 12.2117C29.1381 12.1987 29.1381 12.1849 29.1341 12.1719C29.1008 12.0527 29.0708 11.9941 29.0429 11.9941H29.0375C28.9753 12.0087 28.9495 12.1249 28.9592 12.3414C28.9708 12.5597 29.0067 12.7761 29.0665 12.9868C29.1609 13.3237 29.2632 13.504 29.3733 13.5277H29.3787C29.4087 13.5277 29.4334 13.4681 29.4506 13.3488C29.4694 13.2369 29.4694 13.1228 29.4506 13.0109C29.3887 12.9923 29.3251 12.9797 29.2607 12.9732C29.1891 12.9635 29.1473 12.9499 29.1351 12.9325C29.1207 12.8936 29.1207 12.851 29.1351 12.8121C29.1406 12.769 29.1593 12.7285 29.1888 12.696C29.2205 12.671 29.257 12.6521 29.2961 12.6406C29.3385 12.6307 29.3801 12.6177 29.4205 12.6019C29.4686 12.5769 29.5145 12.5482 29.5579 12.5161C29.5938 12.4883 29.634 12.466 29.677 12.4502C29.6873 12.4493 29.6977 12.4493 29.7081 12.4502H29.7177C29.796 12.4584 29.8721 12.4807 29.942 12.5161C30.0493 12.5642 30.1072 12.5998 30.1115 12.6207C30.121 12.6501 30.1206 12.6817 30.1104 12.7109C30.1002 12.7401 30.0806 12.7653 30.0546 12.7829C30.0483 12.784 30.0417 12.784 30.0353 12.7829H30.0139H29.987H29.9752C29.9629 12.7863 29.9516 12.7924 29.942 12.8006C29.9488 12.9929 29.943 13.1855 29.9248 13.377C29.9158 13.5309 29.8476 13.6759 29.7338 13.7829C29.7077 13.8047 29.6769 13.8204 29.6437 13.829C29.6201 13.8341 29.596 13.8362 29.5718 13.8352C29.5268 13.8352 29.4645 13.8352 29.3819 13.8248H29.3723C29.3186 13.8248 29.2381 13.8195 29.1287 13.8101C29.0193 13.8007 28.8948 13.6961 28.7864 13.5319C28.6769 13.358 28.5951 13.169 28.544 12.9712C28.4648 12.7065 28.4328 12.4305 28.4495 12.1552C28.4703 11.8811 28.5508 11.7089 28.6909 11.6384C28.7049 11.633 28.7193 11.6284 28.7339 11.6248C28.7884 11.6106 28.8448 11.6039 28.9012 11.605M28.9012 11.1719C28.8053 11.1709 28.7097 11.1825 28.6169 11.2064C28.5815 11.2168 28.5472 11.2284 28.5161 11.2409L28.5021 11.2461L28.4935 11.2482C28.206 11.3915 28.044 11.6845 28.0107 12.1186C27.9901 12.4427 28.0264 12.7678 28.118 13.08C28.1811 13.3207 28.2813 13.5506 28.4152 13.762C28.5922 14.0288 28.8058 14.1867 29.0504 14.2307H29.0686H29.0879C29.2081 14.2411 29.3025 14.2474 29.3669 14.2474C29.4517 14.2537 29.5192 14.2579 29.574 14.2579C29.638 14.2591 29.7019 14.2517 29.7639 14.2359C29.8587 14.2105 29.9466 14.1652 30.0214 14.103C30.2218 13.928 30.3455 13.6846 30.3669 13.4231C30.382 13.3051 30.3891 13.1863 30.3883 13.0674C30.4597 12.9984 30.5119 12.9129 30.5403 12.8189C30.5686 12.7249 30.5721 12.6254 30.5503 12.5297C30.4988 12.2807 30.2735 12.174 30.1415 12.1113C30.1365 12.0903 30.1301 12.0694 30.1222 12.0485L30.1126 12.0223L30.0997 11.9972C30.0815 11.9617 30.0654 11.9313 30.0536 11.9062L30.0332 11.8654V11.8592L29.986 11.7545C29.9286 11.6189 29.8406 11.4977 29.7285 11.3999C29.5663 11.2731 29.3699 11.195 29.163 11.175C29.0786 11.1617 28.9932 11.1547 28.9077 11.1541L28.9012 11.1719Z" fill="#492222"/>
<path d="M30.6234 13.7589H30.6094C30.4956 13.729 30.3922 13.6698 30.3101 13.5873C30.198 13.5053 30.1132 13.3929 30.0665 13.2641C30.06 13.2425 30.0553 13.2205 30.0526 13.1982C30.0501 13.1583 30.0558 13.1184 30.0692 13.0807C30.0826 13.043 30.1036 13.0082 30.1309 12.9785L30.1706 12.9283L30.5332 11.9502C30.5007 11.9723 30.4644 11.9886 30.4259 11.9983L30.3916 12.0066H30.3594C30.2639 12.0066 30.1684 11.9617 30.0215 11.8445C29.8745 11.7273 29.7961 11.6353 29.7725 11.5359C29.7622 11.4817 29.7666 11.4258 29.7855 11.3739C29.8043 11.3219 29.8369 11.2757 29.8798 11.2399C29.9271 11.1935 29.9842 11.1577 30.0472 11.1352L30.0697 11.1279H30.0944C30.1143 11.1248 30.134 11.1206 30.1534 11.1154L30.9935 10.7576L31.0042 10.7503C31.0433 10.7181 31.0891 10.6945 31.1384 10.6812C31.1867 10.6667 31.2369 10.659 31.2875 10.6582C31.3418 10.6573 31.3955 10.6703 31.4431 10.6959C31.5203 10.7476 31.5866 10.8133 31.6383 10.8894C31.7084 10.9703 31.7623 11.0632 31.7971 11.1635C31.8167 11.2253 31.8136 11.2919 31.7886 11.3518L31.7832 11.3633C31.7539 11.4144 31.7178 11.4615 31.6759 11.5035L31.3315 12.4596L31.368 12.4272L31.3819 12.4146L31.398 12.4052C31.4516 12.3721 31.5137 12.3543 31.5772 12.3539C31.6194 12.3539 31.6613 12.3617 31.7006 12.377C31.8226 12.4279 31.927 12.5122 32.001 12.6197C32.0725 12.7043 32.1179 12.8069 32.1319 12.9157C32.1345 12.967 32.1254 13.0182 32.1052 13.0656C32.0849 13.113 32.0541 13.1555 32.0149 13.1898C31.9602 13.2414 31.8931 13.2788 31.8197 13.2986C31.7606 13.3127 31.7002 13.3204 31.6394 13.3216L30.9388 13.6061C30.9235 13.6169 30.9088 13.6284 30.8948 13.6407C30.8461 13.6879 30.7871 13.7236 30.7221 13.7453C30.6983 13.7516 30.6738 13.7548 30.6491 13.7547L30.6234 13.7589Z" fill="#E9861D"/>
<path d="M31.2883 10.8664C31.3043 10.8657 31.3201 10.869 31.3345 10.8758C31.3838 10.9153 31.4272 10.9615 31.4632 11.0129C31.5152 11.0721 31.5562 11.1397 31.5844 11.2127C31.5893 11.2273 31.5893 11.243 31.5844 11.2576C31.5532 11.303 31.5173 11.3451 31.4772 11.3832L30.9407 12.8697L31.4417 12.65C31.462 12.6243 31.4851 12.6009 31.5104 12.5799C31.5288 12.5688 31.5499 12.5627 31.5716 12.5621C31.586 12.5619 31.6003 12.5647 31.6134 12.5705C31.6963 12.6063 31.7667 12.6648 31.8162 12.7389C31.8616 12.791 31.8922 12.8538 31.9052 12.9209C31.905 12.941 31.9002 12.9607 31.8913 12.9788C31.8824 12.9968 31.8696 13.0128 31.8537 13.0255C31.8273 13.0543 31.7936 13.0759 31.7561 13.0883C31.7008 13.1001 31.6443 13.1058 31.5877 13.1051L30.8473 13.4053C30.8084 13.424 30.7722 13.448 30.7401 13.4764C30.7148 13.5005 30.6858 13.5207 30.6542 13.536H30.6403C30.5677 13.5085 30.5019 13.4665 30.4471 13.4126C30.37 13.357 30.3097 13.2822 30.2723 13.1961C30.269 13.1851 30.2668 13.1739 30.2658 13.1626C30.2658 13.15 30.2755 13.1302 30.298 13.1009C30.3213 13.0736 30.3428 13.045 30.3624 13.0151L30.9332 11.4784L30.5115 11.6771C30.4832 11.6954 30.4567 11.716 30.4321 11.7388C30.4119 11.7557 30.3891 11.7695 30.3645 11.7796H30.3559C30.2807 11.7593 30.2122 11.72 30.1575 11.6656C30.0502 11.583 29.9954 11.5202 29.9858 11.4773C29.9838 11.4599 29.9866 11.4423 29.994 11.4263C30.0014 11.4103 30.013 11.3965 30.0276 11.3863C30.051 11.3618 30.0801 11.3432 30.1124 11.3319C30.1486 11.3265 30.1845 11.3188 30.2197 11.3089L31.0845 10.9407C31.1023 10.932 31.1189 10.9211 31.1338 10.9082C31.1504 10.8949 31.1693 10.8846 31.1896 10.8779C31.2193 10.8693 31.2499 10.8644 31.2808 10.8633M31.2808 10.4302C31.2103 10.4312 31.1403 10.4414 31.0727 10.4605C31.0007 10.4801 30.9332 10.5131 30.8742 10.5578L30.0738 10.8988H30.0577L30.0137 10.9041L29.9676 10.9187C29.8737 10.9516 29.7884 11.0041 29.7176 11.0725C29.6488 11.1331 29.5974 11.2101 29.5682 11.2959C29.5391 11.3817 29.5332 11.4734 29.5513 11.5621V11.5704C29.6064 11.7441 29.7198 11.8948 29.8731 11.9983C29.9675 12.0798 30.0767 12.1433 30.195 12.1855L29.9633 12.8132L29.945 12.8352C29.8551 12.9405 29.8111 13.0762 29.8227 13.2128C29.8269 13.246 29.8333 13.2788 29.842 13.3111C29.8996 13.4808 30.008 13.6298 30.1532 13.739C30.2653 13.8486 30.4064 13.9257 30.5609 13.9618L30.5877 13.967H30.6413C30.686 13.9669 30.7303 13.9609 30.7733 13.9493C30.8707 13.9193 30.9596 13.8678 31.033 13.7986L31.0437 13.7892L31.6821 13.5298C31.7455 13.5269 31.8085 13.5175 31.8698 13.5015C31.9804 13.4704 32.0806 13.4116 32.1606 13.331C32.2224 13.2749 32.2709 13.2063 32.3028 13.1301C32.3346 13.0539 32.3491 12.9718 32.3451 12.8896C32.3294 12.7395 32.2694 12.5971 32.1724 12.4795C32.072 12.3389 31.9318 12.2299 31.769 12.1657C31.7372 12.154 31.7046 12.1449 31.6714 12.1385L31.8634 11.606C31.9054 11.5592 31.9415 11.5075 31.9707 11.4522L31.9771 11.4407L31.9825 11.4292C32.0276 11.3244 32.0344 11.2077 32.0018 11.0986C31.9605 10.9707 31.8938 10.852 31.8055 10.7492C31.7366 10.6497 31.6475 10.5649 31.5437 10.5003C31.4624 10.4558 31.3707 10.4327 31.2776 10.4333L31.2808 10.4302Z" fill="#492222"/>
</g>
<defs>
<clipPath id="clip0_171_144">
<rect width="40" height="44" fill="white" transform="translate(4 -1)"/>
</clipPath>
</defs>
</svg>
