<svg width="37" height="31" viewBox="0 0 37 31" fill="none" xmlns="http://www.w3.org/2000/svg">
<path d="M11.1501 0.71875C5.4725 0.71875 0.635498 4.96399 0.635498 10.4775C0.635498 14.281 2.41654 17.4832 4.777 20.1359C7.12935 22.7794 10.1643 24.9983 12.9079 26.8554L17.6417 30.0597C18.1602 30.4106 18.84 30.4106 19.3584 30.0597L24.0923 26.8554C26.8359 24.9983 29.8708 22.7794 32.2232 20.1359C34.5836 17.4832 36.3647 14.281 36.3647 10.4775C36.3647 4.96399 31.5277 0.71875 25.8501 0.71875C22.9234 0.71875 20.3481 2.09103 18.5001 3.86666C16.6521 2.09103 14.0768 0.71875 11.1501 0.71875Z" fill="#D7D3D1"/>
</svg>
