<svg width="165" height="165" viewBox="0 0 165 165" fill="none" xmlns="http://www.w3.org/2000/svg">
<g clip-path="url(#clip0_192_1632)">
<path d="M111.574 45.053L108.49 46.8083L108.335 48.6953L107.905 53.8764C109.152 55.8043 110.67 57.9048 112.218 59.4349L113.475 59.1774L119.449 57.9575C122.943 48.5402 122.828 39.0352 122.828 39.0352C118.637 40.0804 114.771 42.148 111.574 45.053Z" fill="#5C585C"/>
<path d="M82.5 165C128.063 165 165 128.063 165 82.5C165 36.9365 128.063 0 82.5 0C36.9365 0 0 36.9365 0 82.5C0 128.063 36.9365 165 82.5 165Z" fill="#E9861D"/>
<path d="M121.647 87.9384C121.252 77.8716 116.697 75.2708 116.697 75.2708L82.8423 74.124H82.7925L48.9354 75.2708C48.9354 75.2708 44.3832 77.8716 43.9854 87.9384C43.9854 87.9384 45.963 86.0836 47.4111 85.8905C47.4111 85.8905 42.2154 107.326 60.3098 125.04C59.9259 124.05 59.6178 123.032 59.3883 121.994C59.3883 121.994 62.6064 126.898 71.0904 131.064C78.9718 134.934 82.3596 149.74 82.7925 151.782V152.019C82.7925 152.019 82.7925 151.978 82.8159 151.899L82.8423 152.019V151.782C83.2752 149.734 86.6601 134.934 94.5444 131.064C103.028 126.898 106.247 121.994 106.247 121.994C106.016 123.035 105.705 124.056 105.319 125.049C123.414 107.335 118.218 85.8993 118.218 85.8993C119.669 86.0836 121.647 87.9384 121.647 87.9384Z" fill="#666467"/>
<path d="M110.714 97.8094C110.714 97.8094 110.714 98.9796 110.129 99.6554C110.129 99.6554 106.636 83.7376 92.5756 98.4647C85.2471 106.141 83.3484 99.8104 82.9213 97.508V96.7533C82.9213 96.7533 82.9067 96.9171 82.8657 97.1804C82.8248 96.9171 82.8101 96.7533 82.8101 96.7533V97.508C82.383 99.8104 80.4697 106.141 73.1559 98.4647C59.0958 83.7376 55.6027 99.6554 55.6027 99.6554C55.0176 98.9679 55.0176 97.8094 55.0176 97.8094C52.7849 103.325 51.9712 109.313 52.6508 115.225C54.7604 118.832 57.3486 122.137 60.345 125.049C59.9487 124.057 59.6288 123.036 59.3883 121.995C59.3883 121.995 61.9131 125.836 68.3726 129.601C74.6537 131.389 78.4774 134.929 78.4774 134.929C78.4867 133.975 78.2964 133.03 77.9186 132.155C81.1367 135.224 82.4327 139.247 82.7926 140.572V141.019C82.7926 141.019 82.8101 140.938 82.8482 140.785C82.8862 140.938 82.9038 141.019 82.9038 141.019V140.572C83.2665 139.247 84.5684 135.224 87.7806 132.155C87.4013 133.03 87.2109 133.975 87.2218 134.929C87.2218 134.929 90.9928 131.438 97.1979 129.636C103.704 125.862 106.247 121.995 106.247 121.995C106.016 123.035 105.706 124.056 105.319 125.049C108.352 122.104 110.968 118.757 113.092 115.102C113.748 109.23 112.93 103.287 110.714 97.8094Z" fill="#AFAFAF"/>
<path d="M94.4946 82.0229C88.3831 80.7503 86.3411 80.6743 82.851 80.6479H82.7925C79.3023 80.6743 77.2603 80.7503 71.1488 82.0229C71.1488 82.0229 66.468 109.21 82.7983 109.245H82.8305C99.1754 109.21 94.4946 82.0229 94.4946 82.0229Z" fill="#D8D8D8"/>
<path d="M83.1731 88.0117H83.1468C82.7109 88.0117 76.4736 88.1697 76.7984 91.5692C77.1056 94.7638 78.8463 94.4947 78.8463 94.4947C78.8463 94.4947 79.5981 97.4495 83.1468 98.4588H83.1731C86.7247 97.4495 87.4736 94.4947 87.4736 94.4947C87.4736 94.4947 89.2143 94.7638 89.5215 91.5692C89.8492 88.1697 83.609 88.0176 83.1731 88.0117Z" fill="#333333"/>
<path d="M78.7348 73.779L76.2656 80.3175L90.1122 80.4521L87.3505 72.5122L78.7348 73.779Z" fill="#666467"/>
<path d="M120.412 70.596C120.394 70.1855 120.241 69.7924 119.977 69.4781C119.712 69.1637 119.351 68.9458 118.949 68.8583C107.426 66.4038 99.7607 65.6958 89.2902 68.595C86.4261 69.3878 85.1945 69.4258 82.7429 69.4083C80.2913 69.3907 79.0596 69.3878 76.1984 68.595C65.6197 65.6695 57.8992 66.4389 46.5306 68.8583C46.1294 68.9462 45.7684 69.1643 45.5039 69.4785C45.2393 69.7928 45.0861 70.1857 45.0679 70.596C44.945 73.5216 44.7753 74.1067 45.4804 74.8322C46.1357 75.4992 47.1713 76.6314 47.5048 77.4418C48.0051 78.6617 49.7604 91.2913 60.0846 91.537C70.0812 91.7798 72.3718 90.5336 75.2593 85.7854C78.1469 81.0373 78.6822 75.4349 80.2913 74.7064C81.3328 74.2383 84.1471 74.2383 85.1828 74.7064C86.7947 75.4407 87.3418 81.0373 90.2176 85.7854C93.0934 90.5336 95.3987 91.7798 105.395 91.5429C115.728 91.2913 117.478 78.6705 117.975 77.4418C118.309 76.6314 119.338 75.4992 119.997 74.8322C120.716 74.1096 120.532 73.5859 120.412 70.596ZM70.6516 87.766C66.433 90.9841 58.616 89.9221 56.7934 89.2024C54.9708 88.4828 51.82 85.9405 50.8019 78.9426C49.7838 71.9447 51.9487 70.6458 54.8772 69.6891C57.8056 68.7325 64.274 68.2966 70.7043 69.5926C70.7043 69.5926 76.3125 70.5024 76.2628 74.1945C76.2131 77.8865 74.8761 84.5479 70.6516 87.766ZM114.681 78.928C113.672 85.9258 110.509 88.471 108.686 89.1878C106.864 89.9046 99.0322 90.9665 94.8282 87.7514C90.6242 84.5362 89.2697 77.8748 89.2171 74.1798C89.1644 70.4849 94.7756 69.578 94.7756 69.578C101.212 68.282 107.674 68.7003 110.6 69.6745C113.525 70.6487 115.678 71.9272 114.681 78.928Z" fill="#56271E"/>
<path d="M114.681 78.928C113.672 85.9258 110.509 88.471 108.687 89.1878C106.864 89.9046 99.0323 90.9665 94.8283 87.7514C90.6244 84.5362 89.2698 77.8748 89.2172 74.1798C89.1645 70.4849 94.7757 69.578 94.7757 69.578C101.212 68.282 107.674 68.7003 110.6 69.6745C113.525 70.6487 115.679 71.9272 114.681 78.928Z" fill="black"/>
<path d="M76.2659 74.1799C76.2132 77.8749 74.8762 84.5363 70.6518 87.7515C66.4273 90.9666 58.6161 89.9076 56.7935 89.1879C54.9709 88.4682 51.8201 85.9259 50.802 78.9281C49.7839 71.9302 51.9488 70.6312 54.8773 69.6746C57.8058 68.7179 64.2741 68.282 70.7044 69.5781C70.7044 69.5781 76.3127 70.4879 76.2659 74.1799Z" fill="black"/>
<path d="M108.388 50.1757C108.388 50.1757 123.092 44.5352 136.731 46.4046L131.172 60.3507L101.847 61.8134L108.388 50.1757Z" fill="#4F0C19"/>
<path d="M26.3299 47.9787C26.3299 47.9787 25.6951 43.9474 52.3438 47.4258C78.9924 50.9043 46.7238 62.9311 36.818 59.8476C26.9121 56.7641 26.3299 47.9787 26.3299 47.9787Z" fill="#4F0C19"/>
<path d="M42.1657 56.2697C42.1657 56.2697 39.1261 47.3936 38.8716 33.3511C38.8716 33.3511 46.3814 34.7904 54.0551 40.6649L55.5851 59.2684L42.1657 56.2697Z" fill="#666467"/>
<path d="M42.8325 39.9073C43.0298 45.7656 44.0815 51.5637 45.9541 57.1182L55.5849 59.2684L54.3299 43.8538C48.4378 39.7347 42.8325 39.9073 42.8325 39.9073Z" fill="#5C585C"/>
<path d="M108.616 42.6864C108.616 42.6864 114.605 36.8617 126.491 33.3511C126.491 33.3511 127.076 42.5138 123.372 56.9484L107.773 60.7253L108.616 42.6864Z" fill="#666467"/>
<path d="M111.431 45.1965L108.412 47.0659L108.081 54.1544C109.395 56.0356 110.986 58.0805 112.586 59.5608L119.763 57.8231C122.914 48.2888 122.46 38.7925 122.46 38.7925C118.311 39.9821 114.521 42.1825 111.431 45.1965Z" fill="#5C585C"/>
<path d="M35.1064 54.7076C35.1064 54.7076 83.1026 66.9071 134.867 51.0068L117.264 72.5066C117.264 72.5066 89.4306 83.1204 34.0327 68.1826L35.1064 54.7076Z" fill="#8C0909"/>
<path d="M88.7137 76.889C75.8121 76.889 57.352 75.2273 33.8512 68.8906L33.2661 68.7326L34.4363 53.786L35.2789 53.9996C35.3959 54.0289 47.4491 57.048 65.6488 58.0954C82.4326 59.0579 108.028 58.4874 134.653 50.3105L136.967 49.5996L117.706 73.1238L117.524 73.194C117.232 73.3023 110.301 75.8972 96.4605 76.6813C94.164 76.8071 91.569 76.889 88.7137 76.889ZM34.8137 67.6355C62.9837 75.1658 83.7754 75.9206 96.2879 75.2214C108.739 74.5251 115.661 72.2959 116.828 71.8863L132.79 52.3935C106.782 59.9735 81.9645 60.4943 65.5318 59.5493C49.9446 58.6541 38.8188 56.3137 35.7645 55.6145L34.8137 67.6355Z" fill="#492222"/>
<path d="M71.8219 75.3908C71.8219 75.3908 51.0916 69.6304 39.287 55.2046C28.0852 41.5423 24.5014 47.686 23.6969 50.6115C22.8924 53.537 19.2823 63.5394 35.241 68.8259C51.782 74.3083 67.8724 76.0636 71.8219 75.3908Z" fill="#A80002"/>
<path d="M69.6801 76.2512C63.5892 76.2512 49.5671 74.3438 35.0097 69.5225C19.0421 64.2302 21.9413 54.1225 22.8804 50.8079C22.9214 50.6645 22.9594 50.5358 22.9916 50.4188C23.3017 49.2895 24.3081 46.6156 26.9527 46.0305C30.2147 45.3401 34.5591 48.2685 39.8514 54.7398C51.3692 68.7999 71.8099 74.6159 72.0323 74.6715L75.1801 75.5491L71.962 76.0962C71.2069 76.2097 70.4437 76.2615 69.6801 76.2512ZM27.9299 47.4084C27.7038 47.407 27.4783 47.4296 27.257 47.4757C25.3993 47.8707 24.6416 49.9361 24.4017 50.805C24.3695 50.9278 24.3285 51.0624 24.2876 51.2087C23.3426 54.5116 20.8355 63.2824 35.4719 68.1329C48.473 72.4422 60.9621 74.4052 67.6118 74.7475C60.9269 72.2696 47.3847 66.2635 38.7192 55.6818C33.2631 49.0204 29.9046 47.4084 27.9299 47.4084Z" fill="#492222"/>
<path d="M141.303 53.2446C140.993 50.9656 138.77 40.9574 131.26 50.1757C123.75 59.3941 103.055 72.167 90.3022 76.1632C90.3022 76.1632 117.741 76.8039 135.464 66.7021C140.993 63.5425 142.283 60.4765 141.303 53.2446Z" fill="#B2121E"/>
<path d="M91.1156 76.9004C90.5948 76.9004 90.3023 76.9004 90.273 76.9004L85.8379 76.7981L90.0741 75.4786C103.125 71.3829 123.624 58.3965 130.692 49.734C133.308 46.5159 135.666 45.1906 137.693 45.7611C141.06 46.7119 141.938 52.5074 142.029 53.1656C143.055 60.7427 141.601 64.0574 135.815 67.3574C119.865 76.4294 95.89 76.9004 91.1156 76.9004ZM136.754 47.0776C135.426 47.0776 133.738 48.2917 131.827 50.6379C125.207 58.7563 107.917 70.1161 94.673 75.3733C103.101 75.0808 121.927 73.5683 135.086 66.0672C140.352 63.0715 141.522 60.3361 140.575 53.3441C140.32 51.4483 139.302 47.7153 137.292 47.1507C137.117 47.1013 136.936 47.0767 136.754 47.0776Z" fill="#492222"/>
<path d="M64.1275 56.1703C64.1275 56.1703 63.753 56.1381 63.1299 56.0708C63.4587 56.1344 63.7926 56.1677 64.1275 56.1703Z" fill="black"/>
<path d="M61.0762 25.1591H61.142C61.142 25.139 61.1077 25.139 61.0762 25.1591Z" fill="black"/>
<path d="M86.0311 103.242C84.6415 102.549 84.2612 101.993 82.8394 101.987H82.816C82.6202 101.986 82.4246 101.999 82.2309 102.028C81.9615 102.069 81.6899 102.095 81.4176 102.104C80.7418 102.104 79.7646 102.121 78.808 102.078C77.3452 102.013 77.8631 103.321 78.0386 103.692C76.7893 103.891 75.5289 104.013 74.2646 104.055C74.2646 104.055 77.7753 104.242 80.0865 103.47C80.9732 103.182 81.8937 103.011 82.8247 102.961C83.7558 103.011 84.6763 103.182 85.5631 103.47C87.8684 104.237 91.3849 104.055 91.3849 104.055C91.3849 104.055 87.4266 103.941 86.0311 103.242Z" fill="#333333"/>
<path d="M79.0448 102.312C79.6732 102.311 80.2992 102.388 80.9083 102.543C81.6046 102.777 79.9751 103.242 78.8107 103.476C77.6464 103.71 79.0448 102.312 79.0448 102.312Z" fill="#1E1E1E"/>
<path d="M79.4574 102.394C79.2812 102.263 79.0783 102.174 78.8633 102.131C78.6483 102.089 78.4266 102.094 78.2141 102.148C77.4154 102.312 72.1436 104.441 69.0425 108.537C69.0425 108.537 68.1649 109.707 68.75 110.585C69.7885 112.144 70.8476 111.22 71.1255 110.857C73.9223 107.2 79.2848 103.488 79.2848 103.488C79.2848 103.488 80.104 103.186 79.4574 102.394Z" fill="#56271E"/>
<path d="M70.6844 111.686C71.0569 111.471 71.0727 110.8 70.7196 110.186C70.3666 109.571 69.7784 109.247 69.4059 109.461C69.0334 109.675 69.0176 110.347 69.3707 110.961C69.7237 111.575 70.3119 111.9 70.6844 111.686Z" fill="#E9861D"/>
<path d="M80.4521 102.432C80.4521 102.432 82.579 101.934 83.4186 102.312C84.2583 102.689 85.133 102.979 85.133 102.979C85.133 102.979 82.6024 102.54 80.5019 102.906L80.4521 102.432Z" fill="#1E1E1E"/>
<path d="M69.7858 110.292C69.7858 110.292 64.3619 106.846 65.4736 98.5552C66.5853 90.3637 66.009 87.6517 62.0244 84.4629C62.0244 84.4629 68.0335 86.9233 66.6409 96.3581C65.0231 107.317 69.7858 110.292 69.7858 110.292Z" fill="#FCFDFE"/>
<path d="M70.4379 109.749C70.7919 110.36 70.7773 111.03 70.4058 111.243L70.4379 109.749Z" fill="#E9861D"/>
<path d="M83.0004 67.6705C82.4943 67.6705 82.1666 67.6705 82.0437 67.6559C81.9208 67.6412 81.5903 67.6705 81.0841 67.6705C77.2488 67.6705 63.5982 67.1 48.9033 59.792L48.5522 59.6165L48.5054 59.2245C48.088 55.129 47.9834 51.0077 48.1924 46.8963C48.6634 37.8271 50.644 31.1657 54.0786 27.0553C55.1875 25.6792 56.5758 24.5541 58.1518 23.7543C59.7277 22.9544 61.4555 22.4981 63.2208 22.4154C63.961 22.3715 64.6836 22.3481 65.3857 22.3481C70.2568 22.3481 73.2613 23.4218 75.9177 24.3697C77.9655 25.1069 79.7501 25.7418 82.0613 25.7447C84.3724 25.7476 86.1336 25.1069 88.1903 24.3697C90.8408 23.4218 93.8453 22.3481 98.7222 22.3481C99.4185 22.3481 100.147 22.3715 100.887 22.4154C102.647 22.5022 104.369 22.9605 105.94 23.7601C107.511 24.5598 108.894 25.6828 110 27.0553C113.435 31.1511 115.415 37.8418 115.886 46.8963C116.095 51.0077 115.991 55.129 115.573 59.2245L115.526 59.6165L115.175 59.792C100.48 67.1059 86.8299 67.6705 82.9945 67.6705H83.0004Z" fill="#A80002"/>
<path d="M98.6986 23.0795C99.3685 23.0795 100.074 23.1029 100.82 23.1468C119.013 24.2468 114.862 59.1308 114.862 59.1308C100.261 66.3949 86.701 66.9332 83.009 66.9332C82.4677 66.9332 82.1313 66.9332 82.0494 66.9156C81.9675 66.8981 81.6281 66.9332 81.0869 66.9332C77.3919 66.9332 63.8262 66.3949 49.2337 59.1308C49.2337 59.1308 45.0765 24.2409 63.2762 23.1468C64.0223 23.0999 64.739 23.0795 65.3973 23.0795C73.9223 23.0795 76.5933 26.4643 82.0552 26.476C87.5172 26.4877 90.1824 23.0795 98.7103 23.0795M98.7103 21.6167C93.7135 21.6167 90.6446 22.7138 87.9385 23.6821C85.9462 24.393 84.223 25.0103 82.0494 25.0132C79.8757 25.0162 78.1613 24.393 76.1691 23.6821C73.46 22.7138 70.3941 21.6167 65.4002 21.6167C64.6863 21.6167 63.9374 21.6401 63.1885 21.6869C61.3242 21.7743 59.4997 22.2562 57.8355 23.1009C56.1712 23.9457 54.7052 25.1339 53.5342 26.5872C45.1965 36.5691 47.6832 58.3848 47.7943 59.3092L47.8879 60.0933L48.5959 60.4473C63.4342 67.8255 77.2281 68.4018 81.1015 68.4018C81.5842 68.4018 81.906 68.4018 82.064 68.3872C82.222 68.3725 82.5409 68.4018 83.0236 68.4018C86.897 68.4018 100.691 67.8167 115.529 60.4473L116.237 60.0933L116.331 59.3092C116.439 58.3848 118.929 36.5691 110.591 26.5872C109.42 25.1339 107.954 23.9457 106.29 23.1009C104.625 22.2562 102.801 21.7743 100.937 21.6869C100.185 21.6401 99.4387 21.6167 98.7278 21.6167H98.7103Z" fill="#492222"/>
<path d="M91.1157 54.9998C93.5569 49.4098 95.561 43.6389 97.1101 37.7391C97.2069 37.3509 97.4499 37.0151 97.7885 36.8019C98.1271 36.5887 98.535 36.5147 98.9269 36.5952C102.476 37.3265 105.926 38.4755 109.204 40.0181C109.523 40.1716 109.781 40.4289 109.934 40.7478C110.088 41.0667 110.129 41.4283 110.05 41.7734C109.298 44.9798 107.074 53.8296 104.164 60.0024L91.1157 54.9998Z" fill="white"/>
<path d="M101.981 54.915L101.829 54.8594C102.218 53.6892 102.607 52.5541 102.999 51.419L103.151 51.4892C102.762 52.6185 102.37 53.7594 101.981 54.915ZM102.274 53.9115C100.47 53.1773 98.5631 52.7282 96.6214 52.5804C96.5249 52.8964 96.4313 53.2153 96.3289 53.5342H96.1797C96.4527 52.6038 96.7268 51.6813 97.0018 50.7666C99.0075 50.9695 100.969 51.4858 102.815 52.2967C102.639 52.8262 102.458 53.3674 102.274 53.9115Z" fill="#770A0A"/>
<path d="M103.403 50.7523L103.251 50.6821C103.641 49.5548 104.031 48.4411 104.421 47.3411L104.57 47.4231C104.178 48.5211 103.789 49.6309 103.403 50.7523ZM103.695 49.7723C101.904 48.8932 99.9909 48.2887 98.0199 47.9789C97.9233 48.289 97.8297 48.5991 97.7273 48.9092L97.5752 48.8888C97.8541 47.9838 98.133 47.0856 98.4119 46.1943C100.443 46.5641 102.405 47.2429 104.231 48.2071C104.055 48.7191 103.874 49.2457 103.69 49.7723H103.695Z" fill="#770A0A"/>
<path d="M105.576 44.7897C105.34 45.4655 105.021 45.8897 104.617 46.077C104.41 46.1688 104.185 46.2123 103.959 46.2042C103.733 46.1961 103.512 46.1366 103.312 46.0302C102.912 45.8629 102.592 45.5488 102.417 45.1525C102.242 44.6613 102.23 44.1265 102.385 43.6283C102.221 44.0555 101.927 44.4207 101.545 44.6727C101.384 44.7687 101.205 44.8291 101.018 44.8498C100.832 44.8705 100.644 44.851 100.466 44.7927C100.187 44.7178 99.9387 44.5583 99.7547 44.3363C99.56 44.0914 99.4428 43.7939 99.4182 43.482C99.3858 43.0724 99.4407 42.6606 99.5791 42.2738C99.6964 41.8734 99.8956 41.5018 100.164 41.1826C100.372 40.9301 100.65 40.7448 100.963 40.6501C101.252 40.5656 101.56 40.579 101.841 40.6881C102.023 40.7529 102.189 40.8574 102.327 40.9939C102.465 41.1305 102.57 41.2958 102.636 41.478C102.783 41.9234 102.792 42.4024 102.663 42.853C102.822 42.3846 103.153 41.9944 103.59 41.7618C103.78 41.6875 103.985 41.6588 104.188 41.6781C104.392 41.6975 104.587 41.7642 104.76 41.873C105.211 42.1211 105.546 42.536 105.694 43.0286C105.848 43.6126 105.807 44.2313 105.576 44.7897ZM105.43 44.699C105.448 44.6361 105.452 44.5698 105.44 44.5054C105.429 44.4409 105.402 44.38 105.363 44.3275C105.247 44.1644 105.105 44.0219 104.942 43.9062C104.708 43.7375 104.461 43.5869 104.204 43.4557C103.956 43.3246 103.698 43.2141 103.432 43.1251C103.261 43.0613 103.078 43.0382 102.897 43.0578C102.836 43.0641 102.778 43.0883 102.732 43.1274C102.685 43.1665 102.651 43.2186 102.633 43.2772C102.612 43.3377 102.607 43.4026 102.618 43.4656C102.63 43.5287 102.657 43.5877 102.698 43.6371C102.817 43.7838 102.963 43.9069 103.128 43.9998C103.33 44.1256 103.578 44.2602 103.874 44.4065C104.169 44.5528 104.424 44.6727 104.643 44.7576C104.809 44.8313 104.988 44.873 105.17 44.8804C105.227 44.8826 105.283 44.8661 105.33 44.8334C105.377 44.8006 105.412 44.7535 105.43 44.699ZM102.394 43.1807C102.406 43.1433 102.41 43.1034 102.404 43.0642C102.399 43.0251 102.384 42.9878 102.361 42.9554C102.275 42.8435 102.162 42.7542 102.034 42.6951C101.782 42.565 101.519 42.4554 101.25 42.3674C101.04 42.296 100.827 42.2355 100.612 42.186C100.459 42.1527 100.303 42.1331 100.147 42.1275C100.047 42.1196 99.9475 42.1336 99.8541 42.1685C99.8231 42.1787 99.7949 42.1958 99.7716 42.2187C99.7482 42.2415 99.7304 42.2693 99.7196 42.3001C99.7098 42.3304 99.7078 42.3627 99.714 42.3939C99.7201 42.4251 99.7341 42.4543 99.7547 42.4786C99.8152 42.5532 99.891 42.6141 99.977 42.657C100.112 42.7295 100.252 42.793 100.395 42.8472C100.568 42.9145 100.776 42.9847 101.018 43.0637C101.37 43.1807 101.639 43.2626 101.829 43.3065C101.96 43.3466 102.098 43.3556 102.233 43.3328C102.27 43.3232 102.305 43.3042 102.333 43.2776C102.361 43.251 102.382 43.2176 102.394 43.1807Z" fill="#770A0A"/>
<path d="M115.169 47.0425C98.2014 55.2632 82.7721 54.7542 82.0436 54.7249C81.3123 54.7542 65.8918 55.2632 48.9149 47.0425C48.7149 51.076 48.8196 55.1189 49.2279 59.1366C65.962 67.4598 81.324 66.9507 82.0436 66.9215C82.7604 66.9507 98.1341 67.4598 114.856 59.1366C115.265 55.1189 115.369 51.076 115.169 47.0425Z" fill="#E9861D"/>
<path d="M98.7191 62.7876H98.292H98.2715C98.1018 62.7876 97.8561 62.7876 97.5284 62.7613H97.4699C97.1526 62.7059 96.8497 62.5875 96.5789 62.4131C96.308 62.2388 96.0749 62.012 95.8931 61.7461C95.5137 61.2172 95.2368 60.6218 95.0768 59.9908C94.909 59.3211 94.8235 58.6334 94.8223 57.9429C94.8223 57.4544 94.7989 55.9741 95.8316 55.6932C95.927 55.6677 96.0255 55.6558 96.1242 55.6581C96.3361 55.5173 96.5652 55.4042 96.8058 55.3217C96.876 55.3041 96.9433 55.2866 97.0165 55.2749C97.1308 55.258 97.2461 55.2492 97.3617 55.2485C97.73 55.2597 98.0916 55.3501 98.4217 55.5137C98.7519 55.6773 99.0429 55.9101 99.275 56.1964C99.8481 56.8528 100.257 57.6359 100.469 58.4812C100.703 59.2695 100.756 60.1007 100.624 60.9124C100.416 62.0504 99.8016 62.5214 99.3218 62.7145C99.1403 62.782 98.9479 62.8157 98.7542 62.814L98.7191 62.7876ZM97.4202 58.3203C97.4491 58.6461 97.5089 58.9684 97.5986 59.2828C97.7037 59.6988 97.8672 60.0977 98.0843 60.4677L98.1106 60.5145C98.1106 60.4677 98.1106 60.4121 98.1106 60.3536C98.095 59.7521 98.0016 59.1552 97.8327 58.5778C97.783 58.3935 97.7274 58.2209 97.6747 58.0629C97.6119 58.168 97.5246 58.2564 97.4202 58.3203Z" fill="#E9861D"/>
<path d="M97.3559 55.8279C97.639 55.8415 97.9159 55.9154 98.1681 56.0445C98.4204 56.1737 98.6421 56.3551 98.8187 56.5768C99.3273 57.1662 99.6884 57.8682 99.8719 58.6247C100.084 59.324 100.133 60.0626 100.015 60.7838C99.8894 61.4859 99.5764 61.9364 99.082 62.1353C98.9733 62.1749 98.8582 62.1937 98.7426 62.1909H98.7221H98.3096H98.2979C98.137 62.1909 97.8942 62.1909 97.5665 62.1675C97.3294 62.1217 97.1037 62.029 96.9028 61.8948C96.7018 61.7607 96.5297 61.5879 96.3963 61.3864C96.0621 60.9149 95.819 60.385 95.6796 59.8242C95.5255 59.204 95.4479 58.5674 95.4485 57.9284C95.4368 56.9279 95.624 56.375 96.0102 56.2697C96.0582 56.2589 96.1073 56.254 96.1564 56.255H96.1798C96.2256 56.2588 96.2716 56.2588 96.3173 56.255C96.5263 56.1167 96.7488 56 96.9814 55.9069C97.0314 55.8921 97.0822 55.8804 97.1336 55.8718C97.214 55.8601 97.2951 55.8542 97.3764 55.8542M97.0575 57.8407C97.0268 57.839 96.9965 57.8341 96.9668 57.826C96.9306 57.8156 96.8933 57.8097 96.8556 57.8085H96.8381C96.7846 58.3692 96.8474 58.9349 97.0224 59.4702C97.14 59.9424 97.3263 60.3949 97.5753 60.813C97.8094 61.1933 98.0434 61.3835 98.2745 61.3835H98.2979C98.5788 61.3601 98.7192 61.0266 98.7192 60.383C98.7063 59.7274 98.608 59.0764 98.4267 58.4463C98.3194 58.0307 98.1684 57.6276 97.9761 57.2439C97.7977 56.9074 97.6338 56.7407 97.4788 56.7407C97.3237 56.7407 97.2915 56.9162 97.274 57.2673C97.2564 57.6183 97.1921 57.8085 97.0838 57.8524H97.0546M97.3735 54.6548C97.2334 54.6555 97.0936 54.6662 96.9551 54.6869H96.9259C96.8361 54.7029 96.7473 54.7234 96.6596 54.7484C96.4124 54.8241 96.1763 54.9324 95.9575 55.0702C95.8666 55.0779 95.7765 55.0936 95.6884 55.117C94.7054 55.3861 94.2256 56.3428 94.2256 57.9577C94.2257 58.6996 94.3181 59.4386 94.5006 60.1577C94.6809 60.8661 94.9914 61.5347 95.4163 62.1295C95.645 62.4594 95.9376 62.74 96.2768 62.9546C96.6161 63.1692 96.995 63.3134 97.391 63.3787H97.4495H97.5051C97.8533 63.3963 98.1136 63.405 98.2979 63.405H98.7134H98.7514C99.0138 63.4066 99.2745 63.361 99.5208 63.2705C100.141 63.0189 100.937 62.425 101.191 61.0119C101.342 60.1129 101.285 59.1912 101.025 58.3175C100.79 57.38 100.335 56.5117 99.6993 55.784C99.4106 55.4345 99.0501 55.1511 98.6422 54.9533C98.2343 54.7554 97.7886 54.6476 97.3354 54.6372L97.3735 54.6548Z" fill="#492222"/>
<path d="M103.306 61.6585C103.169 61.6585 102.993 61.6585 102.765 61.6292C102.601 61.6292 102.364 61.6292 102.046 61.5853H102.019H101.993C101.498 61.4947 101.051 61.1436 100.662 60.5439C100.329 60.0043 100.081 59.4174 99.9245 58.8032C99.6876 57.9967 99.5887 57.1559 99.632 56.3165C99.7051 55.3306 100.039 54.6782 100.621 54.3798L100.656 54.3622C100.721 54.3358 100.787 54.3134 100.855 54.2949C101.055 54.2425 101.262 54.2169 101.469 54.2189C101.673 54.2208 101.876 54.2374 102.078 54.2686C102.528 54.3097 102.957 54.4804 103.312 54.7601C103.551 54.9758 103.737 55.2429 103.856 55.5412C103.933 55.7138 103.988 55.8337 104.017 55.8952V55.9098L104.047 55.9683C104.082 56.0415 104.126 56.1322 104.181 56.2375L104.199 56.2755L104.213 56.3106C104.255 56.4348 104.27 56.5664 104.257 56.6968C104.345 56.729 104.442 56.7699 104.55 56.8138C104.918 56.9806 105.284 57.1736 105.357 57.554C105.407 57.7529 105.394 57.9623 105.321 58.1538C105.248 58.3453 105.117 58.5097 104.948 58.6247L104.91 58.651C104.915 59.0555 104.897 59.46 104.854 59.8622C104.813 60.4437 104.55 60.9871 104.12 61.3806C103.982 61.4961 103.822 61.5809 103.649 61.6292C103.536 61.6539 103.421 61.6638 103.306 61.6585Z" fill="#E9861D"/>
<path d="M101.478 54.8156C101.652 54.8171 101.825 54.8318 101.996 54.8595C102.331 54.887 102.652 55.0064 102.923 55.2047C103.092 55.3629 103.224 55.5568 103.309 55.7723C103.372 55.924 103.442 56.0724 103.52 56.2169C103.558 56.2989 103.605 56.3925 103.663 56.5095C103.689 56.5894 103.689 56.6753 103.663 56.7552C103.647 56.833 103.609 56.9043 103.552 56.96C103.409 57.0101 103.256 57.0281 103.105 57.0127H102.944C102.727 57.0219 102.51 56.9993 102.3 56.9454C102.195 56.9103 102.125 56.805 102.092 56.6265C102.083 56.593 102.083 56.5576 102.092 56.5241C102.104 56.4879 102.104 56.4492 102.092 56.4129C102.002 56.0794 101.92 55.9156 101.844 55.9156H101.829C101.659 55.9566 101.589 56.2813 101.616 56.8869C101.647 57.4974 101.745 58.1027 101.908 58.6919C102.166 59.634 102.444 60.1381 102.745 60.2044H102.759C102.841 60.2044 102.909 60.0377 102.955 59.7042C103.007 59.3913 103.007 59.0721 102.955 58.7592C102.787 58.7072 102.613 58.6719 102.438 58.6539C102.243 58.6266 102.129 58.5886 102.095 58.5398C102.056 58.4311 102.056 58.3121 102.095 58.2034C102.11 58.0828 102.161 57.9696 102.242 57.8786C102.328 57.8085 102.428 57.7558 102.534 57.7236C102.65 57.6959 102.763 57.6597 102.874 57.6153C103.005 57.5454 103.13 57.4652 103.248 57.3754C103.346 57.2976 103.456 57.2355 103.573 57.1911C103.601 57.1886 103.629 57.1886 103.658 57.1911H103.684C103.897 57.2139 104.105 57.2764 104.295 57.3754C104.588 57.51 104.746 57.6095 104.758 57.668C104.784 57.7502 104.783 57.8386 104.755 57.9202C104.727 58.0018 104.673 58.0723 104.603 58.1215C104.585 58.1248 104.567 58.1248 104.55 58.1215H104.491H104.418H104.386C104.352 58.1311 104.322 58.1481 104.295 58.1712C104.314 58.709 104.298 59.2474 104.249 59.7832C104.224 60.2135 104.038 60.6188 103.728 60.9183C103.657 60.9792 103.573 61.0232 103.482 61.047C103.418 61.0615 103.352 61.0674 103.286 61.0645C103.163 61.0645 102.993 61.0645 102.768 61.0353H102.742C102.596 61.0353 102.376 61.0207 102.078 60.9943C101.779 60.968 101.44 60.6754 101.145 60.2161C100.846 59.73 100.623 59.2013 100.483 58.6481C100.267 57.9078 100.18 57.1359 100.226 56.3661C100.283 55.5996 100.502 55.1179 100.884 54.9209C100.922 54.9056 100.961 54.8929 101.001 54.8829C101.15 54.8432 101.304 54.8245 101.458 54.8273M101.458 53.6161C101.196 53.6135 100.935 53.646 100.682 53.7127C100.586 53.7419 100.492 53.7741 100.407 53.8092L100.369 53.8239L100.346 53.8297C99.5619 54.2305 99.1201 55.0497 99.0294 56.2637C98.9733 57.1701 99.0723 58.0793 99.322 58.9523C99.4939 59.6255 99.7672 60.2686 100.132 60.8598C100.615 61.6058 101.197 62.0475 101.864 62.1704H101.914H101.967C102.294 62.1996 102.552 62.2172 102.727 62.2172C102.958 62.2348 103.143 62.2465 103.292 62.2465C103.467 62.25 103.641 62.2293 103.81 62.185C104.068 62.1141 104.308 61.9873 104.512 61.8135C105.058 61.324 105.396 60.6431 105.454 59.9119C105.495 59.582 105.515 59.2497 105.512 58.9172C105.707 58.7242 105.849 58.4851 105.927 58.2222C106.004 57.9592 106.013 57.681 105.954 57.4135C105.814 56.7172 105.199 56.4188 104.84 56.2433C104.826 56.1848 104.808 56.1262 104.787 56.0677L104.761 55.9946L104.725 55.9244C104.676 55.8249 104.632 55.7401 104.6 55.6699L104.544 55.5558V55.5382L104.415 55.2457C104.259 54.8664 104.019 54.5274 103.713 54.2539C103.271 53.8993 102.735 53.6808 102.171 53.6249C101.941 53.5878 101.708 53.5682 101.475 53.5664L101.458 53.6161Z" fill="#492222"/>
<path d="M106.153 60.8511H106.115C105.805 60.7677 105.523 60.6019 105.299 60.3713C104.993 60.1421 104.762 59.8276 104.635 59.4673C104.617 59.407 104.604 59.3454 104.597 59.283C104.59 59.1716 104.605 59.0599 104.642 58.9545C104.679 58.849 104.736 58.7519 104.81 58.6687L104.919 58.5282L105.907 55.7929C105.819 55.8548 105.72 55.9004 105.615 55.9274L105.521 55.9508H105.433C105.173 55.9508 104.913 55.825 104.512 55.4974C104.111 55.1697 103.898 54.9123 103.833 54.6343C103.805 54.4828 103.817 54.3265 103.869 54.1812C103.92 54.0358 104.009 53.9066 104.126 53.8064C104.255 53.6767 104.41 53.5768 104.582 53.5139L104.644 53.4934H104.711C104.765 53.4846 104.819 53.4729 104.872 53.4583L107.162 52.4578L107.192 52.4373C107.298 52.3473 107.423 52.2814 107.557 52.2442C107.689 52.2037 107.826 52.182 107.964 52.1798C108.112 52.1771 108.259 52.2135 108.388 52.2851C108.599 52.4297 108.78 52.6135 108.921 52.8264C109.112 53.0525 109.259 53.3125 109.354 53.5929C109.407 53.7658 109.399 53.9519 109.33 54.1195L109.316 54.1516C109.236 54.2946 109.137 54.4264 109.023 54.5437L108.084 57.2176L108.183 57.1269L108.222 57.0918L108.265 57.0655C108.412 56.9727 108.581 56.9231 108.754 56.9221C108.869 56.9219 108.983 56.9438 109.09 56.9865C109.423 57.1289 109.708 57.3646 109.91 57.6652C110.105 57.9018 110.228 58.1889 110.266 58.4931C110.274 58.6366 110.249 58.7798 110.194 58.9124C110.138 59.045 110.054 59.1636 109.948 59.2596C109.798 59.4039 109.615 59.5085 109.415 59.5639C109.254 59.6033 109.089 59.6249 108.924 59.6282L107.013 60.424C106.972 60.454 106.932 60.4863 106.893 60.5205C106.761 60.6526 106.599 60.7526 106.422 60.8131C106.357 60.8308 106.291 60.8397 106.223 60.8394L106.153 60.8511Z" fill="#E9861D"/>
<path d="M107.967 52.7619C108.01 52.7601 108.053 52.7691 108.092 52.7883C108.227 52.8988 108.345 53.0278 108.443 53.1715C108.585 53.3373 108.697 53.5263 108.774 53.7303C108.787 53.7712 108.787 53.8152 108.774 53.8561C108.689 53.9829 108.591 54.1005 108.481 54.2072L107.019 58.3643L108.385 57.75C108.44 57.6782 108.503 57.6125 108.572 57.554C108.622 57.5229 108.68 57.5058 108.739 57.5042C108.778 57.5035 108.817 57.5115 108.853 57.5276C109.079 57.6279 109.271 57.7915 109.406 57.9986C109.53 58.1444 109.613 58.3198 109.649 58.5077C109.648 58.5637 109.635 58.6189 109.611 58.6694C109.586 58.7199 109.552 58.7646 109.508 58.8002C109.436 58.8806 109.344 58.9411 109.242 58.9758C109.091 59.0089 108.937 59.0246 108.783 59.0226L106.764 59.8622C106.658 59.9146 106.559 59.9815 106.472 60.0611C106.403 60.1286 106.324 60.1849 106.238 60.2279H106.199C106.002 60.151 105.822 60.0334 105.673 59.8827C105.463 59.7271 105.298 59.518 105.196 59.2771C105.187 59.2465 105.181 59.2152 105.178 59.1835C105.178 59.1484 105.205 59.0928 105.266 59.0109C105.33 58.9346 105.388 58.8545 105.442 58.771L106.998 54.4734L105.848 55.0292C105.771 55.0802 105.699 55.138 105.632 55.2018C105.577 55.249 105.515 55.2875 105.448 55.3159H105.424C105.219 55.2591 105.032 55.1491 104.883 54.997C104.59 54.7659 104.441 54.5904 104.415 54.4705C104.41 54.4217 104.417 54.3724 104.437 54.3277C104.457 54.2829 104.489 54.2443 104.529 54.2159C104.593 54.1475 104.672 54.0953 104.76 54.0638C104.859 54.0486 104.957 54.0271 105.053 53.9994L107.411 52.9697C107.459 52.9454 107.504 52.9149 107.545 52.879C107.59 52.8416 107.642 52.8129 107.697 52.7941C107.778 52.7702 107.862 52.7564 107.946 52.7532M107.946 51.542C107.754 51.5448 107.563 51.5734 107.378 51.6268C107.182 51.6816 106.998 51.774 106.837 51.8989L104.655 52.8526H104.611L104.491 52.8673L104.365 52.9082C104.109 53.0002 103.877 53.147 103.684 53.3383C103.496 53.5079 103.356 53.7231 103.276 53.9631C103.197 54.203 103.181 54.4595 103.23 54.7074V54.7308C103.381 55.2166 103.69 55.6379 104.108 55.9274C104.365 56.1552 104.663 56.3329 104.985 56.451L104.353 58.2064L104.304 58.2678C104.058 58.5625 103.939 58.9418 103.97 59.3239C103.982 59.4167 103.999 59.5085 104.023 59.5989C104.18 60.0735 104.475 60.4902 104.871 60.7955C105.177 61.102 105.562 61.3177 105.983 61.4186L106.056 61.4332H106.202C106.324 61.4329 106.445 61.4162 106.562 61.3835C106.828 61.2998 107.07 61.1556 107.27 60.9622L107.299 60.9359L109.04 60.2103C109.213 60.2024 109.385 60.176 109.552 60.1314C109.853 60.0442 110.127 59.8798 110.345 59.6545C110.513 59.4976 110.646 59.3059 110.733 59.0927C110.82 58.8795 110.859 58.6499 110.848 58.4199C110.805 58.0002 110.642 57.6019 110.377 57.2731C110.103 56.8801 109.721 56.5751 109.277 56.3955C109.191 56.363 109.102 56.3375 109.011 56.3194L109.535 54.8303C109.649 54.6993 109.747 54.5549 109.827 54.4002L109.845 54.3681L109.859 54.3359C109.982 54.0429 110.001 53.7165 109.912 53.4114C109.799 53.0538 109.617 52.7218 109.377 52.4343C109.189 52.1558 108.946 51.9188 108.663 51.738C108.441 51.6137 108.191 51.5491 107.937 51.5508L107.946 51.542Z" fill="#492222"/>
<path d="M98.6989 23.0795C99.3689 23.0795 100.074 23.1029 100.82 23.1468C108.93 23.6353 112.598 30.8409 114.172 38.6755C118.04 36.3923 122.178 34.6035 126.491 33.351C126.491 33.351 126.805 38.1606 125.564 46.2936C127.296 46.1239 129.075 46.0244 130.894 46.0244C132.702 46.0205 134.507 46.1289 136.301 46.3491C136.446 46.3541 136.59 46.3727 136.731 46.4047C139.498 46.9898 140.516 51.7585 140.718 53.2446C141.698 60.4765 140.408 63.5425 134.867 66.7021C130.479 69.2005 125.506 71.0406 120.503 72.3952C120.576 73.8579 120.541 74.288 120.006 74.8321C119.386 75.4462 118.822 76.1138 118.32 76.8273C119.672 78.5388 121.41 81.8914 121.647 87.9444C121.647 87.9444 119.669 86.0896 118.224 85.8965C118.224 85.8965 121.878 100.983 112.373 116.304L112.344 116.351C112.235 116.527 112.121 116.702 112.007 116.881L111.881 117.077L111.542 117.606L111.475 117.706C111.264 118.022 111.045 118.335 110.822 118.648L110.603 118.955L110.31 119.365C110.223 119.487 110.129 119.607 110.038 119.73L109.746 120.099C109.573 120.324 109.395 120.549 109.213 120.775L108.973 121.067C108.845 121.225 108.713 121.383 108.581 121.538L108.33 121.831C108.172 122.026 108.011 122.213 107.847 122.392L107.683 122.577C107.467 122.823 107.244 123.065 107.019 123.308L106.814 123.528C106.639 123.715 106.46 123.902 106.282 124.086L106.065 124.312C105.823 124.56 105.574 124.809 105.322 125.055C105.708 124.06 106.017 123.037 106.247 121.995L106.232 122.015L106.206 122.053L106.191 122.074L106.15 122.129V122.15L106.092 122.229V122.246L106.013 122.349C105.199 123.414 102.531 126.541 97.2362 129.613C96.4141 130.093 95.5335 130.566 94.5827 131.035C86.6984 134.905 83.3135 149.711 82.8806 151.753V151.99L82.8542 151.87C82.8396 151.949 82.8308 151.99 82.8308 151.99V151.753C82.3979 149.705 79.0101 134.905 71.1287 131.035C70.1545 130.555 69.2505 130.066 68.4109 129.572C68.2149 129.455 68.0189 129.341 67.8258 129.224H67.8053L67.2436 128.875C62.7734 126.055 60.4564 123.337 59.7074 122.357L59.6343 122.261L59.6197 122.24L59.5641 122.164L59.5465 122.141L59.5056 122.085V122.068C59.5056 122.053 59.4851 122.041 59.4792 122.03V122.012V121.995C59.7083 123.035 60.0164 124.056 60.4008 125.049C60.1492 124.803 59.9005 124.554 59.6577 124.306L59.4441 124.086C59.2627 123.899 59.0843 123.709 58.9058 123.522L58.7127 123.311C58.4875 123.071 58.2681 122.831 58.0545 122.589C57.9872 122.512 57.9228 122.436 57.8556 122.363L57.4109 121.845L57.1476 121.538L56.7643 121.073L56.4191 120.646L56.0095 120.128L55.6965 119.716L55.4683 119.423C55.3572 119.274 55.246 119.131 55.1377 118.973L55.0266 118.815C54.7808 118.475 54.5409 118.133 54.3098 117.791L54.2396 117.688C54.1138 117.501 53.9909 117.311 53.8681 117.124L53.8154 117.042C43.7311 101.478 47.5021 85.9111 47.5021 85.9111C46.054 86.0954 44.0763 87.959 44.0763 87.959C44.3103 82.0436 45.9779 78.7085 47.3149 76.9619C46.8003 76.203 46.2124 75.4965 45.5595 74.8526C44.9276 74.209 44.9949 73.6824 45.1032 71.5468C42.1103 70.7744 39.021 69.8763 35.917 68.8465C19.8675 63.5396 23.4776 53.5372 24.2822 50.6116C24.6771 49.1723 25.7449 46.9606 28.059 46.7031C29.2819 46.3257 31.3649 46.0127 34.9194 46.0127C36.3412 46.0127 38 46.0624 39.9338 46.1795C39.3 41.9311 38.9453 37.6458 38.8718 33.351C38.8718 33.351 43.9739 34.3311 50.0619 37.9558C51.7178 30.405 55.404 23.6207 63.2649 23.1468C64.0109 23.0999 64.7276 23.0795 65.3859 23.0795C73.9109 23.0795 76.5819 26.4643 82.0439 26.476C87.5058 26.4877 90.171 23.0795 98.6989 23.0795ZM98.6989 21.6167C93.7021 21.6167 90.6332 22.7138 87.9271 23.6821C85.9348 24.393 84.2117 25.0103 82.038 25.0132C79.8643 25.0162 78.15 24.393 76.1577 23.6821C73.4486 22.7138 70.3827 21.6167 65.3888 21.6167C64.675 21.6167 63.926 21.6401 63.1771 21.6869C59.1106 21.9327 55.7463 23.7172 53.1835 26.9968C51.4282 29.226 50.0707 32.1574 49.1024 35.7324C43.6492 32.8069 39.3457 31.9526 39.1556 31.9292L37.4002 31.5898L37.4324 33.392C37.4988 37.154 37.7752 40.9094 38.2603 44.6406C37.0901 44.5909 35.9638 44.5646 34.9428 44.5646C31.8125 44.5646 29.4048 44.8045 27.7782 45.2813C25.4816 45.6002 23.6649 47.4433 22.8955 50.2372C22.8633 50.3542 22.8282 50.4829 22.7872 50.6204C22.2957 52.3377 21.2747 55.9127 22.5356 59.7422C24.0393 64.3617 28.3779 67.8957 35.367 70.2127C38 71.0904 40.7207 71.8978 43.4941 72.638C43.4385 74.1007 43.538 74.9521 44.4244 75.8561C44.8106 76.2481 45.15 76.6226 45.4279 76.959C44.1085 79.042 42.7364 82.4765 42.5258 87.8771L42.3853 91.4433L44.9861 89.0034C45.1353 88.863 45.3138 88.7109 45.5069 88.5558C45.252 90.9302 45.1913 93.3215 45.3255 95.7058C45.7529 103.576 48.2243 111.199 52.496 117.823L52.5165 117.852L52.5516 117.908L52.9348 118.493L52.9845 118.563L53.008 118.601C53.2478 118.952 53.4965 119.309 53.7452 119.657L53.7891 119.719L53.8622 119.818C53.9734 119.976 54.0904 120.131 54.2045 120.286C54.2835 120.389 54.3596 120.494 54.4385 120.599L54.7633 121.023C54.9008 121.202 55.0412 121.38 55.1846 121.556C55.3279 121.731 55.4215 121.848 55.5415 121.998C55.6614 122.147 55.8018 122.319 55.9364 122.477L56.2056 122.796C56.3577 122.975 56.4981 123.15 56.6649 123.326L56.738 123.411L56.8697 123.56C57.0832 123.8 57.3114 124.051 57.5484 124.306C57.5923 124.356 57.6361 124.402 57.683 124.449L57.7502 124.522C57.9316 124.717 58.1159 124.912 58.3032 125.107L58.3383 125.145L58.5226 125.336C58.8151 125.628 59.0521 125.871 59.2861 126.102L64.1923 130.906L62.8992 127.629C64.0248 128.532 65.2019 129.369 66.4244 130.136L67.0096 130.496H67.0242C67.226 130.616 67.4221 130.736 67.6093 130.853C68.5221 131.386 69.467 131.892 70.4207 132.36C77.5415 135.856 80.821 149.708 81.3037 151.923L82.7899 154.158L84.279 151.923C84.7617 149.708 88.0383 135.856 95.1619 132.36C96.0893 131.903 97.0109 131.412 97.9061 130.897C99.5875 129.926 101.193 128.83 102.71 127.618L101.426 130.877L106.349 126.09C106.583 125.859 106.826 125.614 107.113 125.321C107.174 125.26 107.236 125.198 107.294 125.134L107.335 125.093C107.522 124.9 107.704 124.71 107.885 124.508L107.952 124.437L108.096 124.282C108.344 124.013 108.57 123.768 108.78 123.528L108.883 123.411L108.947 123.337L109.447 122.752L109.708 122.445L110.108 121.957L110.182 121.869L110.357 121.652C110.544 121.418 110.729 121.187 110.907 120.953C110.983 120.857 111.056 120.76 111.13 120.661L111.194 120.576L111.486 120.195L111.797 119.774C111.864 119.681 111.931 119.59 111.995 119.496L112.022 119.458C112.256 119.128 112.484 118.8 112.698 118.484L112.721 118.449L112.768 118.382L113.116 117.852L113.245 117.65L113.593 117.103L113.613 117.068V117.053C117.646 110.521 119.955 103.072 120.324 95.4045C120.439 93.1131 120.372 90.8162 120.126 88.5353C120.322 88.6904 120.5 88.8425 120.649 88.9829L123.247 91.4111L123.11 87.8566C122.893 82.38 121.492 78.922 120.137 76.8303C120.398 76.5172 120.722 76.1779 121.047 75.8356C121.356 75.5272 121.6 75.1592 121.762 74.7538C121.924 74.3484 122.003 73.9142 121.992 73.4776C127.185 71.9944 131.755 70.1367 135.593 67.9483C141.634 64.505 143.231 60.8803 142.166 53.0281C142.006 51.8257 140.996 45.7816 137.032 44.9507C136.839 44.9111 136.644 44.8838 136.447 44.8688C134.609 44.647 132.76 44.5375 130.909 44.5412C129.739 44.5412 128.522 44.5821 127.287 44.664C128.232 37.5784 127.978 33.4241 127.966 33.2369L127.849 31.4085L126.094 31.9263C122.308 33.0323 118.65 34.5335 115.178 36.4053C114.239 32.6664 112.882 29.5946 111.132 27.2601C108.537 23.8196 105.094 21.9414 100.908 21.6869C100.156 21.6401 99.4098 21.6167 98.6989 21.6167Z" fill="#492222"/>
</g>
<defs>
<clipPath id="clip0_192_1632">
<rect width="165" height="165" fill="white"/>
</clipPath>
</defs>
</svg>
