<svg width="30" height="32" viewBox="0 0 30 32" fill="none" xmlns="http://www.w3.org/2000/svg">
<path d="M15.0001 0.875C11.2031 0.875 8.12508 3.95304 8.12508 7.75C8.12508 11.547 11.2031 14.625 15.0001 14.625C18.797 14.625 21.8751 11.547 21.8751 7.75C21.8751 3.95304 18.797 0.875 15.0001 0.875Z" fill="white" fill-opacity="0.8"/>
<path d="M7.66675 18.2917C3.86979 18.2917 0.791748 21.3697 0.791748 25.1667V27.3452C0.791748 28.7261 1.79253 29.9035 3.15541 30.1261C10.9999 31.4068 19.0002 31.4068 26.8447 30.1261C28.2076 29.9035 29.2084 28.7261 29.2084 27.3452V25.1667C29.2084 21.3697 26.1304 18.2917 22.3334 18.2917H21.7085C21.3703 18.2917 21.0341 18.3452 20.7126 18.4501L19.1258 18.9683C16.445 19.8437 13.5552 19.8437 10.8743 18.9683L9.28755 18.4501C8.96602 18.3452 8.62991 18.2917 8.29167 18.2917H7.66675Z" fill="white" fill-opacity="0.8"/>
</svg>
