<svg width="225" height="281" viewBox="0 0 225 281" fill="none" xmlns="http://www.w3.org/2000/svg">
<g clip-path="url(#clip0_183_1477)">
<path d="M199.644 150.395L214.03 83.4162C147.028 53.2069 138.631 18.6289 138.631 18.6289C138.631 18.6289 116.769 46.7072 43.2774 46.7388L28.8904 113.718C28.8904 113.718 2.36755 200.332 86.3441 262.053C188.253 240.26 199.644 150.395 199.644 150.395Z" fill="#E9861D"/>
<g opacity="0.11">
<path d="M213.69 84.9976L214.03 83.4161C195.75 75.1745 181.867 66.6111 171.271 58.4746C181.372 66.9713 195.097 76.1252 213.69 84.9976Z" fill="black"/>
<path d="M34.0636 117.859L48.4506 50.8802C108.39 50.8527 133.981 32.1748 141.385 25.2808C140.233 23.1677 139.31 20.9378 138.631 18.6288C138.631 18.6288 116.769 46.7071 43.2771 46.7388L28.8901 113.718C28.8901 113.718 3.10304 197.951 82.9143 259.474C9.41245 198.385 34.0636 117.859 34.0636 117.859Z" fill="black"/>
</g>
<path d="M189.858 149.263L202.629 89.8092C143.151 62.9858 135.696 32.2947 135.696 32.2947C135.696 32.2947 116.288 57.2156 51.048 57.25L38.2774 116.704C38.2774 116.704 14.7331 193.6 89.2795 248.387C179.748 229.045 189.858 149.263 189.858 149.263Z" fill="#A80002"/>
<path d="M74.5096 73.9436C74.5096 73.9436 107.718 77.5799 132.166 61.6808C132.166 61.6808 129.895 85.4947 105.919 95.4957C105.919 95.4957 112.625 98.1482 119.292 95.3379C119.292 95.3379 77.3892 106.942 61.4527 99.2771L74.1674 88.0694L60.1759 82.6399L74.5096 73.9436Z" fill="#8C0909"/>
<path d="M49.1301 115.35C49.1301 115.35 37.2871 172.264 70.7251 208.536C70.7251 208.536 61.4587 189.577 63.6985 179.15C63.6985 179.15 75.7742 213.257 122.15 197.765C122.15 197.765 72.3528 175.554 70.873 148.571C70.873 148.571 113.932 145.699 120.117 102.787C120.117 102.787 68.604 128.084 49.1301 115.35Z" fill="#8C0909"/>
<path d="M79.1612 129.516C79.1612 129.516 73.0108 140.564 58.5134 148.413C58.5134 148.413 79.6788 160.668 84.2116 186.338L102.925 189.994C102.925 189.994 116.828 152.873 174.959 118.646L171.519 110.95C171.519 110.95 128.641 120.375 97.8207 155.808C97.8207 155.808 94.8031 138.694 79.1612 129.516Z" fill="#E9861D"/>
<path d="M132.493 47.2057C132.493 47.2057 102.813 72.4716 59.5003 67.0709L55.1551 87.3002C59.5392 88.3881 64.0104 89.0889 68.517 89.3946C63.905 90.9211 59.0754 91.689 54.2169 91.6682L50.7128 107.981C50.7128 107.981 71.4186 114.077 99.886 102.047C99.886 102.047 75.231 109.369 60.4043 103.227C70.9835 103.83 81.5428 101.747 91.0988 97.1723C91.0988 97.1723 74.8616 99.3752 69.6394 96.6172C69.6394 96.6172 99.498 95.922 117.91 77.1568C117.91 77.1568 96.7648 87.2504 66.4648 82.9723C66.4648 82.9723 117.173 75.3682 132.493 47.2057Z" fill="black"/>
<path d="M71.3506 197.156C71.3506 197.156 81.1932 224.724 110.378 232.811C110.378 232.811 101.151 219.314 102.644 212.362C102.644 212.362 85.2962 214.09 71.3506 197.156Z" fill="#8C0909"/>
<path d="M144.81 58.397C144.81 58.397 165.334 87.0467 193.857 92.5675L189.253 114.002C189.253 114.002 164.623 104.469 154.983 87.2476C154.983 87.2476 168.972 101.161 180.232 102.368C180.232 102.368 153.742 84.5569 144.81 58.397Z" fill="#FCFDFE"/>
<path opacity="0.19" d="M120.83 184.149C120.83 184.149 151.818 144.322 185.875 129.73C185.875 129.73 178.499 192.294 135.473 217.596C135.473 217.596 159.643 192.971 161.561 181.02C161.561 181.02 143.135 210.151 122.89 211.257C122.89 211.257 161.619 180.947 167.008 155.663C167.008 155.663 149.645 185.49 120.83 184.149Z" fill="#FCFDFE"/>
<path opacity="0.29" d="M89.4764 184.268C89.4764 184.268 125.281 132.38 168.883 115.686L170.124 118.377C170.124 118.377 121.508 144.296 101.218 186.79L89.4764 184.268Z" fill="#FCFDFE"/>
<path opacity="0.11" d="M84.5403 133.35C82.8653 131.917 81.0673 130.634 79.1671 129.517C79.1671 129.517 73.0167 140.565 58.5194 148.414C62.5627 150.97 66.252 154.047 69.4925 157.565C80.2559 148.61 83.6093 139.434 84.5403 133.35Z" fill="black"/>
<path d="M209.409 81.2782C208.6 80.8924 207.791 80.5124 207.001 80.1246L205.837 79.5595L203.47 78.3844L202.553 77.9088C201.459 77.3586 200.394 76.839 199.355 76.2582L199.176 76.1592C198.191 75.6384 197.226 75.1342 196.274 74.5965L195.374 74.1002C194.653 73.7029 193.944 73.3081 193.241 72.9087L192.306 72.3805L190.151 71.1237L189.456 70.714C188.51 70.1531 187.576 69.5889 186.665 69.0297L186.52 68.9439L184.009 67.3682L183.321 66.9296L181.396 65.6737L180.655 65.2296C179.965 64.7723 179.29 64.3304 178.627 63.8607L178.214 63.5782C177.385 63.0062 176.572 62.4437 175.791 61.8457L175.733 61.8332C174.98 61.2956 174.244 60.7598 173.526 60.2258L173.039 59.8667L171.296 58.553L170.818 58.1836L168.915 56.684L168.744 56.5502C168.035 55.9799 167.338 55.4179 166.682 54.8589C166.378 54.8603 165.976 54.5013 165.5 53.8658C158.791 48.2891 152.752 41.9523 147.505 34.9829C153.743 59.5703 189.37 77.695 209.131 86.6062L194.744 153.585C194.744 153.585 187.863 207.862 136.983 242.265C180.237 215.593 194.164 174.551 198.166 157.835C198.382 156.833 198.612 155.931 198.786 155.12C198.901 154.587 199.006 154.095 199.102 153.649C199.197 153.208 199.283 152.809 199.331 152.443C199.368 152.27 199.402 152.113 199.434 151.963L199.444 151.916C199.506 151.627 199.56 151.377 199.567 151.173L199.577 151.127C199.598 151.028 199.617 150.941 199.632 150.872C199.648 150.815 199.66 150.757 199.669 150.698C199.679 150.652 199.688 150.611 199.693 150.588L214.117 83.4349C212.92 82.891 211.739 82.3485 210.574 81.8073L209.409 81.2782Z" fill="#FCFDFE"/>
</g>
<defs>
<clipPath id="clip0_183_1477">
<rect width="174.956" height="248.976" fill="white" transform="translate(53.1035 0.257812) rotate(12.1228)"/>
</clipPath>
</defs>
</svg>
