<svg width="319" height="303" viewBox="0 0 319 303" fill="none" xmlns="http://www.w3.org/2000/svg">
<rect x="0.5" y="45.5" width="318" height="219" rx="30.5" stroke="#E9861D" stroke-opacity="0.19"/>
<rect x="57.5" y="84.5" width="113" height="107" rx="30.5" stroke="#E9861D" stroke-opacity="0.19"/>
<rect x="194.5" y="106.5" width="92" height="44" rx="22" stroke="#E9861D" stroke-opacity="0.19"/>
<g clip-path="url(#clip0_394_658)">
<path d="M245.747 205.983L236.75 237.884L228.926 237.314L197.809 274.935C196.535 276.476 194.71 277.46 192.721 277.677C190.733 277.894 188.739 277.328 187.163 276.099L169.725 262.514C169.725 262.514 195.798 244.529 199.044 233.317C202.289 222.104 195.728 221.016 195.728 221.016L206.126 203.059L245.747 205.983Z" fill="#B2121E"/>
<path d="M214.749 150.715C214.749 150.715 192.145 150.267 155.836 127.107C119.527 103.948 97.4532 67.9929 93.7597 68.9068C90.0663 69.8207 72.2844 65.5517 54.7762 139.001C37.268 212.45 52.5909 225.625 58.7268 224.272C64.8627 222.918 104.366 202.898 131.103 200.637C157.84 198.375 194.124 205.257 194.124 205.257L214.749 150.715Z" fill="#B2121E"/>
<g opacity="0.25">
<path d="M115.579 114.769C115.885 114.616 116.217 114.452 116.486 114.293L117.116 113.936C117.406 113.773 117.696 113.61 117.983 113.434C118.27 113.257 118.482 113.124 118.731 112.969C119.166 112.693 119.6 112.41 120.026 112.122L120.808 111.581L121.497 111.065C121.753 110.873 122.003 110.684 122.256 110.479L122.902 109.958L123.711 109.271L124.266 108.789C124.687 108.404 125.101 108.02 125.504 107.617L125.79 107.329C126.14 106.979 126.488 106.615 126.828 106.246C126.972 106.091 127.122 105.928 127.263 105.76L127.941 104.98C108.265 86.2289 96.3664 68.2733 93.7446 68.9378C90.8033 69.6872 78.8749 67.1033 65.2739 103.39C70.7497 110.55 78.4767 115.663 87.214 117.908C95.9513 120.153 105.192 119.399 113.452 115.768L113.98 115.537L114.94 115.079L115.579 114.769Z" fill="#683C14"/>
</g>
<path d="M268.054 178.175L263.482 193.685L261.429 200.627C260.068 205.209 257.001 209.096 252.858 211.488C248.714 213.879 243.811 214.593 239.159 213.482L189.544 206.607L204.235 139.609L255.518 154.999C260.254 156.416 264.233 159.652 266.583 163.996C268.933 168.341 269.462 173.44 268.054 178.175Z" fill="#E8505B"/>
<path d="M268.054 178.175L263.482 193.685L261.429 200.627C260.068 205.209 257.001 209.096 252.858 211.488C248.714 213.879 243.811 214.593 239.159 213.482L189.544 206.607L204.235 139.609L255.518 154.999C260.254 156.416 264.233 159.652 266.583 163.996C268.933 168.341 269.462 173.44 268.054 178.175Z" fill="#4F0C19"/>
<path d="M57.5281 139.724C48.338 179.455 47.9712 213.291 56.7213 215.299C65.4715 217.308 79.992 186.738 89.182 147.007C98.3721 107.276 98.7255 73.4435 89.9821 71.4334C81.2387 69.4234 66.7115 99.9946 57.5281 139.724Z" fill="#E8505B"/>
<path d="M57.5281 139.724C48.338 179.455 47.9712 213.291 56.7213 215.299C65.4715 217.308 79.992 186.738 89.182 147.007C98.3721 107.276 98.7255 73.4435 89.9821 71.4334C81.2387 69.4234 66.7115 99.9946 57.5281 139.724Z" fill="#4F0C19"/>
<path d="M276.09 197.638L262.731 196.208L267.554 179.878L278.154 183.848L276.09 197.638Z" fill="#B2121E"/>
<g opacity="0.6">
<path d="M267.554 179.878L262.731 196.208L265.474 196.499L268.819 180.353L267.554 179.878Z" fill="black"/>
</g>
<path d="M259.547 185.022C259.441 185.47 252.68 184.295 244.441 182.388C236.201 180.48 229.605 178.586 229.706 178.146C229.807 177.706 236.567 178.874 244.814 180.787C253.062 182.7 259.675 184.576 259.547 185.022Z" fill="#B2121E"/>
<path d="M261.677 175.446C261.561 175.883 255.396 174.603 247.925 172.646C240.454 170.69 234.48 168.686 234.597 168.256C234.715 167.827 240.879 169.1 248.35 171.056C255.821 173.013 261.793 175.01 261.677 175.446Z" fill="#B2121E"/>
<path d="M256.541 195.22C256.517 195.449 254.952 195.405 252.426 195.148C251.159 195.016 249.657 194.833 247.991 194.635C246.325 194.436 244.568 193.919 242.681 193.457C235.161 191.643 229.288 189.577 229.382 189.173C229.476 188.769 235.616 190.061 243.061 191.855C244.921 192.288 246.683 192.824 248.298 193.152C249.912 193.48 251.383 193.753 252.608 194.026C255.046 194.546 256.56 195 256.541 195.22Z" fill="#B2121E"/>
<g opacity="0.32">
<path d="M103.451 90.65C103.559 90.6284 103.645 92.4243 103.687 95.6499C103.729 98.8756 103.765 103.538 103.665 109.312L102.848 118.716C102.695 120.405 102.541 122.158 102.375 123.955C102.295 124.863 102.211 125.776 102.124 126.694C102.021 127.617 101.794 128.552 101.673 129.486L99.611 141.288L99.0658 144.379C98.8957 145.421 98.5599 146.44 98.286 147.489L96.6403 153.804C96.0854 155.936 95.5346 158.041 94.9878 160.12C94.6965 161.151 94.4927 162.2 94.1313 163.196L93.1534 166.157L89.1815 177.452C88.8484 178.344 88.5733 179.246 88.2132 180.11C87.8531 180.973 87.4648 181.799 87.0899 182.623L84.9403 187.435L81.0566 196.053C78.3288 201.128 76.0028 205.163 74.4036 207.961C72.8044 210.759 71.8579 212.264 71.7501 212.216C71.6422 212.168 72.3961 210.54 73.8322 207.662L80.0229 195.51C81.1476 192.863 82.3707 189.973 83.6923 186.873L85.7461 182.073L86.829 179.567C87.1689 178.708 87.4373 177.808 87.7569 176.918L91.6075 165.647L92.6217 162.693C92.9778 161.705 93.1761 160.664 93.4675 159.633L95.1011 153.363C95.6488 151.242 96.1956 149.151 96.7414 147.091C96.9897 146.055 97.3282 145.049 97.5265 144.008L98.0825 140.936L100.22 129.231C100.383 128.295 100.552 127.386 100.704 126.467C100.857 125.547 100.9 124.642 100.988 123.75L101.539 118.55L102.565 109.245C102.789 103.565 102.972 98.9431 103.098 95.6488C103.224 92.3544 103.339 90.6514 103.451 90.65Z" fill="#4F0C19"/>
</g>
<path d="M155.836 127.107C136.488 114.765 121.178 98.7801 110.542 86.6831C114.37 100.982 121.258 120.381 132.692 133.879C130.921 129.085 129.912 124.043 129.703 118.936C129.703 118.936 142.652 138.747 179.906 140.352C171.59 136.489 163.548 132.064 155.836 127.107Z" fill="#FCFDFE"/>
<path opacity="0.19" d="M255.523 155.026L204.24 139.636L203.701 142.089C213.727 145.55 223.069 150.739 231.301 157.421C230.584 154.435 228.815 151.807 226.315 150.018C226.315 150.018 241.816 150.417 266.585 164.104C265.432 161.937 263.861 160.019 261.963 158.461C260.064 156.903 257.876 155.735 255.523 155.026Z" fill="#FCFDFE"/>
<path opacity="0.32" d="M100.234 197.382C102.465 188.984 111.771 182.418 111.771 182.418C93.7873 188.634 81.546 206.525 75.5173 217.524C91.0437 211.044 113.74 202.108 131.089 200.639C137.364 200.16 143.662 200.05 149.949 200.31C150.256 185.233 159.773 178.044 159.773 178.044C151.685 179.662 140.446 189.352 140.446 189.352C150.203 178.034 164.874 168.61 164.874 168.61C131.715 171.043 100.234 197.382 100.234 197.382Z" fill="#4F0C19"/>
<path opacity="0.32" d="M187.369 177.655C187.369 177.655 193.678 172.893 194.236 166.712C194.236 166.712 195.251 181.91 186.328 203.953C191.16 204.702 194.111 205.26 194.111 205.26L214.745 150.73C214.745 150.73 205.651 150.54 189.756 144.528C190.96 155.623 190.152 166.845 187.369 177.655Z" fill="#4F0C19"/>
<path opacity="0.32" d="M195.437 221.067C195.437 221.067 202.086 222.138 198.766 233.365C195.447 244.593 168.969 262.658 168.969 262.658L177.094 268.901C190.896 258.776 195.288 250.806 195.288 250.806C195.098 255.114 190.519 260.783 190.519 260.783C210.93 241.999 210.039 219.777 210.039 219.777C213.307 221.923 214.249 226.635 214.249 226.635C217.419 218.3 216.796 209.899 215.478 203.764L206.005 203.083L195.437 221.067Z" fill="#4F0C19"/>
<path d="M232.528 222.978C230.369 233.21 221.067 239.271 221.067 239.271C220.598 237.787 219.715 236.467 218.522 235.466C217.328 234.465 215.874 233.824 214.329 233.619C214.819 242.312 213.616 251.018 210.787 259.256L228.945 237.303L236.769 237.873L239.861 226.908C235.848 223.21 232.528 222.978 232.528 222.978Z" fill="#FCFDFE"/>
<path d="M276.091 197.638L278.154 183.847L275.471 182.837C275.834 187.595 274.32 190.117 274.32 190.117C273.83 189.434 273.139 188.921 272.344 188.65C272.614 191.505 272.406 194.386 271.729 197.173L276.091 197.638Z" fill="#FCFDFE"/>
<path d="M67.7514 182.838C66.4637 184.408 65.5369 186.241 65.0365 188.207C64.536 190.174 64.4741 192.226 64.8551 194.219C64.8551 194.219 52.0245 148.057 85.6835 105.832C80.1028 106.986 74.8771 109.452 70.44 113.025C70.44 113.025 72.963 94.593 84.8268 83.8193C81.9626 83.8554 79.1166 84.2811 76.3671 85.0847C69.7275 97.4453 62.7588 117.096 57.5284 139.724C48.3383 179.455 47.9714 213.291 56.7215 215.299C61.6142 216.421 68.3326 207.327 74.9068 192.117C72.1282 189.347 69.7228 186.228 67.7514 182.838Z" fill="#350913"/>
<path d="M89.4955 124.887C89.4955 124.887 68.3554 117.006 63.1333 144.441C57.9113 171.877 78.5489 172.095 78.5489 172.095C84.1443 157.949 87.8462 142.255 89.4955 124.887Z" fill="#E9861D"/>
<path opacity="0.32" d="M105.2 130.055C103.346 146.643 99.2362 162.903 92.9851 178.385C92.9851 178.385 109.613 158.664 105.2 130.055Z" fill="#4F0C19"/>
<path d="M65.1314 116.481C78.7177 113.763 87.5311 100.561 84.8168 86.9924C82.1024 73.424 68.8881 64.6279 55.3018 67.3458C41.7155 70.0638 32.9021 83.2665 35.6164 96.8349C38.3308 110.403 51.5451 119.199 65.1314 116.481Z" fill="#E9861D"/>
<g opacity="0.55">
<path d="M53.1464 72.9363C56.9048 71.5382 60.9933 71.2844 64.895 72.207C68.7966 73.1296 72.3361 75.1871 75.066 78.1194C77.7959 81.0517 79.5935 84.7271 80.2315 88.6808C80.8695 92.6345 80.3193 96.689 78.6504 100.332C76.9815 103.974 74.2689 107.041 70.8556 109.145C67.4423 111.249 63.4816 112.295 59.4744 112.15C55.4671 112.006 51.5932 110.678 48.3426 108.335C45.0919 105.992 42.6105 102.738 41.2121 98.9847C40.2835 96.4925 39.8556 93.8418 39.9528 91.184C40.05 88.5261 40.6704 85.9132 41.7786 83.4943C42.8869 81.0755 44.4612 78.8981 46.4117 77.0865C48.3622 75.275 50.6506 73.8647 53.1464 72.9363ZM52.9039 72.2848C49.0188 73.731 45.6496 76.295 43.2224 79.6527C40.7951 83.0104 39.4188 87.0111 39.2673 91.1488C39.1158 95.2865 40.1961 99.3756 42.3714 102.899C44.5468 106.423 47.7196 109.222 51.4888 110.944C55.2579 112.666 59.4541 113.233 63.5469 112.572C67.6397 111.912 71.4453 110.055 74.4826 107.236C77.5199 104.416 79.6524 100.761 80.6107 96.7325C81.5689 92.7037 81.3098 88.4822 79.8661 84.6017C77.9235 79.4009 73.993 75.1839 68.9381 72.877C63.8832 70.5701 58.1172 70.362 52.9066 72.2983L52.9039 72.2848Z" fill="#683C14"/>
</g>
<g opacity="0.55">
<path d="M70.6995 96.803C70.437 98.0422 69.8423 99.1871 68.9789 100.115C67.9505 101.223 66.685 102.083 65.277 102.634L66.212 105.135L64.256 105.869L63.3076 103.336C61.3465 103.964 59.2379 103.962 57.2785 103.331C56.4003 103.017 55.6016 102.515 54.9379 101.861C54.2743 101.207 53.7618 100.415 53.4364 99.5424L59.0818 97.454C59.2899 97.9863 59.6619 98.4387 60.1441 98.7461C60.6264 99.0535 61.194 99.1999 61.7651 99.1643L59.9209 94.29C58.4967 94.4643 57.0623 94.5408 55.6278 94.5188C54.4909 94.478 53.3825 94.1535 52.4038 93.5747C51.2547 92.8441 50.4031 91.7293 50.0011 90.4292C49.65 89.5774 49.5039 88.6551 49.5745 87.7364C49.6452 86.8178 49.9306 85.9283 50.4079 85.1397C51.5034 83.3773 53.1326 82.0092 55.059 81.2341L54.1294 78.76L56.0854 78.0257L57.0136 80.5281C58.9034 79.8833 60.9524 79.8741 62.8473 80.5021C63.7018 80.8383 64.4788 81.3447 65.131 81.9904C65.7832 82.6362 66.2969 83.4078 66.6409 84.2584L60.9846 86.3629C60.7913 85.8857 60.4559 85.4794 60.0237 85.1991C59.5915 84.9187 59.0834 84.7777 58.5682 84.7953L60.3518 89.5766C61.826 89.4397 63.3061 89.3772 64.7864 89.3895C65.9014 89.4325 66.9889 89.7459 67.9552 90.3027C69.1089 91.0064 69.965 92.1075 70.3619 93.3984C70.7898 94.4795 70.9068 95.6587 70.6995 96.803ZM56.4659 89.213C57.0145 89.4702 57.6107 89.6107 58.2167 89.6258L56.588 85.3384C56.1075 85.6007 55.7228 86.0086 55.4892 86.5032C55.3873 86.7569 55.337 87.0282 55.3411 87.3014C55.3452 87.5746 55.4037 87.8442 55.5132 88.0945C55.6751 88.5758 56.0162 88.9763 56.4659 89.213ZM64.9479 97.2395C65.1628 96.7096 65.1624 96.1171 64.9469 95.5877C64.8656 95.3428 64.7355 95.1169 64.5643 94.9238C64.3931 94.7306 64.1845 94.5741 63.951 94.4638C63.3709 94.2234 62.7459 94.1098 62.118 94.1305L63.7561 98.535C64.2891 98.2508 64.7094 97.7939 64.9479 97.2395Z" fill="#683C14"/>
</g>
<g opacity="0.25">
<path d="M61.8672 73.7117C65.7097 73.8895 69.3736 75.3808 72.2451 77.9358C71.1153 77.6702 69.9652 77.4999 68.8068 77.4266C68.8068 77.4266 79.8661 84.6015 77.2729 97.2868C77.2729 97.2868 77.2124 83.3894 61.8672 73.7117Z" fill="#683C14"/>
</g>
<g opacity="0.25">
<path d="M73.0889 90.9137C73.0889 90.9137 76.9397 98.0746 69.399 107.507C69.3922 107.509 80.3748 101.511 73.0889 90.9137Z" fill="#683C14"/>
</g>
<g opacity="0.25">
<path d="M44.1998 83.1543C44.1998 83.1543 36.6282 98.4945 51.9788 108.199C51.9788 108.199 46.4469 102.201 46.4572 97.8023C46.0375 98.0359 45.7191 98.4162 45.5634 98.8702C45.5634 98.8702 41.4862 91.4185 44.1998 83.1543Z" fill="#683C14"/>
</g>
<path d="M78.2574 74.493C74.5084 70.6029 69.5971 68.0322 64.2601 67.1663C58.9231 66.3004 53.448 67.1861 48.6559 69.6904C52.7711 69.0282 59.9232 68.4444 66.3347 70.7809C66.1043 70.3084 65.7683 69.8951 65.3526 69.5729C64.937 69.2506 64.4527 69.0281 63.9371 68.9225C63.9371 68.9225 68.581 67.4685 78.2574 74.493Z" fill="#FCFDFE"/>
<path d="M83.7281 83.164C82.9929 81.2024 82.0152 79.3403 80.8178 77.6209C79.2109 76.4455 77.4222 75.5406 75.5225 74.9421C75.5225 74.9421 83.4937 82.5528 83.388 92.1154C84.1153 91.175 84.4624 89.9962 84.3605 88.8127C84.8324 92.1296 84.8262 95.4971 84.3422 98.8127C85.8247 93.665 85.6094 88.1783 83.7281 83.164Z" fill="#FCFDFE"/>
<g opacity="0.25">
<path d="M36.7045 100.663C38.9495 106.714 43.4563 111.659 49.2775 114.459C37.1063 99.7289 37.2485 90.3132 37.2485 90.3132C36.5548 94.3441 38.2778 99.3126 38.2778 99.3126C36.7564 96.6532 35.702 93.7531 35.1605 90.7379C34.9992 94.1169 35.5244 97.4932 36.7045 100.663Z" fill="#683C14"/>
</g>
<g opacity="0.25">
<path d="M84.5541 85.8199C84.5258 85.6786 84.4989 85.5439 84.4706 85.4026C84.4181 85.1401 84.3265 84.8924 84.247 84.6353C84.2228 84.5141 84.1972 84.3862 84.173 84.2651C84.0571 83.8962 83.9264 83.5234 83.789 83.1518C83.6516 82.7803 83.4307 82.2365 83.2286 81.7869C83.2003 81.6456 83.1046 81.5177 83.0427 81.3831C82.9026 81.0681 82.7463 80.7424 82.5981 80.457C82.5199 80.3116 82.4485 80.1649 82.3717 80.0263C82.206 79.7234 82.0348 79.4286 81.8637 79.1338C81.7896 79.0087 81.7236 78.8889 81.6508 78.7704C80.3891 76.7114 78.8354 74.8459 77.0381 73.2319C76.1221 72.4453 75.1511 71.7248 74.1325 71.0761L74.1244 71.0357C73.1585 70.3958 72.1493 69.8235 71.1041 69.3228L70.968 69.2731C70.4513 69.0264 69.9217 68.7964 69.379 68.5829C68.8722 68.3856 68.3519 68.2027 67.8182 68.0341L67.6174 67.9763C67.0796 67.8109 66.5378 67.6602 65.9852 67.5258L65.938 67.5352C65.4231 67.4142 64.8988 67.3161 64.3758 67.2247L64.0941 67.1831C63.551 67.0957 62.997 67.0245 62.447 66.9735L62.3594 66.9911C61.8459 66.9468 61.3296 66.9241 60.8148 66.9081L60.463 66.9014C59.9157 66.8989 59.3698 66.9031 58.8158 66.9369L58.7215 66.9558C58.2079 66.9815 57.693 67.0355 57.1808 67.103L56.7899 67.1812C56.244 67.2554 55.7007 67.3431 55.1562 67.459L55.082 67.4739C54.6507 67.5602 54.2126 67.6478 53.7866 67.796C53.7922 67.8087 53.795 67.8225 53.7947 67.8364L53.7448 68.1474C53.6638 68.6886 53.5909 69.2352 53.5315 69.7791C53.5463 69.8532 53.5139 69.9366 53.5085 70.0147C53.4464 70.5802 53.4058 71.1483 53.372 71.7151C53.3638 71.7718 53.3588 71.8288 53.3571 71.8861C53.3274 72.4731 53.3043 73.0587 53.2948 73.6416L53.3163 73.7493C53.3108 74.3524 53.3188 74.9529 53.3402 75.5506L53.3523 75.6112C53.3697 76.2237 53.4087 76.8389 53.4611 77.4515C53.5149 78.0707 53.5822 78.6873 53.6629 79.3012C53.7383 79.9231 53.8339 80.541 53.9416 81.1495C54.8759 86.486 56.8842 91.5772 59.845 96.1153C62.8059 100.653 66.6577 104.544 71.1677 107.553C72.9706 108.744 74.8651 109.79 76.8336 110.682C80.4156 107.509 83.0184 103.382 84.3371 98.7858C84.4909 98.258 84.6163 97.7289 84.7189 97.1904C84.7445 97.0732 84.7769 96.9547 84.7958 96.839C84.8147 96.7232 84.8768 96.4028 84.9186 96.1914C84.9604 95.98 84.9658 95.9019 84.9874 95.7646C85.009 95.6273 85.0562 95.3378 85.0846 95.1291C85.1129 94.9205 85.1143 94.8222 85.1332 94.6714C85.1521 94.5206 85.1845 94.2621 85.198 94.0494C85.2116 93.8367 85.2291 93.6792 85.2413 93.4947C85.2562 93.1837 85.2765 92.8647 85.2833 92.5483C85.2847 92.345 85.2941 92.1471 85.2901 91.9519C85.2861 91.7567 85.2889 91.5951 85.2875 91.4134C85.2862 91.2316 85.2782 91.0163 85.2661 90.8157C85.254 90.6151 85.254 90.4751 85.2406 90.3027C85.2272 90.1304 85.2083 89.8612 85.1801 89.6148C85.1518 89.3685 85.1545 89.3119 85.1384 89.1611C85.0697 88.8179 85.0577 88.4773 85.0052 88.1098C84.989 88.029 84.9715 87.9415 84.954 87.854C84.8948 87.5578 84.8342 87.2549 84.7722 86.9453C84.7466 86.8174 84.7197 86.6828 84.6928 86.5482C84.6753 86.3207 84.6107 86.0676 84.5541 85.8199Z" fill="#683C14"/>
</g>
<path d="M106.787 108.939C128.592 104.577 142.737 83.3879 138.381 61.6116C134.024 39.8352 112.816 25.7182 91.0114 30.0803C69.2063 34.4423 55.0613 55.6317 59.4176 77.4081C63.774 99.1844 84.982 113.301 106.787 108.939Z" fill="#E9861D"/>
<g opacity="0.55">
<path d="M116.956 42.4607C122.307 46.0272 126.479 51.0987 128.944 57.0343C131.409 62.9699 132.057 69.5031 130.805 75.8081C129.553 82.1131 126.458 87.9068 121.911 92.457C117.364 97.0071 111.569 100.109 105.259 101.372C98.9488 102.634 92.4064 102 86.4589 99.5492C80.5113 97.0984 75.4256 92.9412 71.8446 87.6031C68.2636 82.2649 66.3479 75.9854 66.3399 69.5583C66.3318 63.1312 68.2316 56.8449 71.7993 51.4942C74.1703 47.9381 77.2197 44.8832 80.7729 42.5044C84.3262 40.1255 88.3138 38.4692 92.5076 37.6302C96.7014 36.7913 101.019 36.7861 105.214 37.6149C109.409 38.4437 113.399 40.0904 116.956 42.4607ZM117.569 41.5679C112.034 37.8825 105.527 35.92 98.8731 35.9285C92.2189 35.9371 85.7156 37.9163 80.1858 41.6159C74.656 45.3155 70.3479 50.5693 67.8065 56.7129C65.2651 62.8565 64.6044 69.6139 65.9081 76.1306C67.2117 82.6473 70.4211 88.6305 75.1304 93.3236C79.8397 98.0167 85.8374 101.209 92.3649 102.496C98.8924 103.784 105.657 103.109 111.802 100.557C117.947 98.005 123.198 93.6905 126.89 88.1592C131.83 80.7402 133.624 71.6683 131.877 62.9337C130.129 54.1991 124.984 46.5152 117.569 41.5679Z" fill="#683C14"/>
</g>
<g opacity="0.55">
<path d="M102.389 87.7263C100.529 88.5508 98.479 88.8544 96.4596 88.6045C94.0542 88.3184 91.7457 87.49 89.7085 86.1819L87.33 89.7448L84.5012 87.8677L86.9066 84.2643C83.9839 81.9416 82.1005 79.3362 81.2564 76.4483C80.8456 75.0097 80.7536 73.4987 80.9869 72.0207C81.2203 70.5426 81.7733 69.1329 82.6075 67.8897L90.621 73.2239C89.6231 75.1036 89.7284 76.7976 90.9367 78.3059L95.5749 71.3578C94.0136 69.6636 92.5637 67.8702 91.2344 65.9889C90.2247 64.4726 89.6085 62.7291 89.4414 60.9154C89.2351 58.9966 89.8479 56.9676 91.2798 54.8284C92.0583 53.5718 93.1207 52.5148 94.3819 51.7422C95.6431 50.9696 97.0678 50.5029 98.5419 50.3795C101.596 50.0905 104.749 50.8785 108.001 52.7434L110.385 49.1724L113.2 51.0523L110.795 54.6206C113.72 56.9102 115.56 59.4285 116.316 62.1755C117.071 64.9225 116.63 67.7431 114.994 70.6371L106.908 65.2545C107.787 63.5526 107.727 62.0246 106.695 60.684L102.16 67.5204C103.734 69.2954 105.215 71.1513 106.595 73.0804C107.592 74.5669 108.208 76.2753 108.389 78.0557C108.618 79.97 108.028 81.9828 106.618 84.0942C105.579 85.6782 104.113 86.9372 102.389 87.7263ZM98.8899 62.1053C99.0624 63.0464 99.43 63.9409 99.969 64.7316L104.052 58.6156C103.253 58.233 102.353 58.114 101.481 58.2758C101.056 58.3821 100.657 58.572 100.306 58.8345C99.9553 59.097 99.6605 59.4267 99.439 59.8044C98.9638 60.4712 98.7669 61.2964 98.8899 62.1053ZM96.4127 80.6616C97.3057 80.4431 98.079 79.8868 98.5697 79.11C98.8125 78.775 98.985 78.3944 99.0766 77.9911C99.1681 77.5877 99.177 77.1701 99.1026 76.7634C98.8636 75.7905 98.4209 74.8794 97.8037 74.0901L93.6347 80.3353C94.4963 80.7569 95.4764 80.872 96.4127 80.6616Z" fill="#683C14"/>
</g>
<g opacity="0.25">
<path d="M124.143 54.5263C124.143 54.5263 129.646 62.1687 128.419 71.9415C127.717 70.2261 126.87 68.5735 125.888 67.0015C125.888 67.0015 126.885 88.1388 107.92 96.7C107.92 96.7 125.968 83.5551 124.143 54.5263Z" fill="#683C14"/>
</g>
<g opacity="0.25">
<path d="M112.295 85.2825C112.295 85.2825 106.603 97.0196 87.2207 96.1019C87.2207 96.1019 105.348 104.726 112.295 85.2825Z" fill="#683C14"/>
</g>
<g opacity="0.25">
<path d="M95.2349 40.4356C95.2349 40.4356 68.1601 45.0749 69.9859 74.1037C69.9859 74.1037 72.598 61.2677 78.3329 57.1383C77.635 56.8184 76.8438 56.765 76.1089 56.9882C76.1089 56.9882 81.933 44.7207 95.2349 40.4356Z" fill="#683C14"/>
</g>
<path d="M138.542 76.5736C140.082 68.0362 138.811 59.2317 134.92 51.479C131.029 43.7263 124.726 37.4428 116.958 33.5698C121.694 38.2924 129.177 47.0368 132.165 57.5556C132.562 56.8122 132.783 55.9881 132.813 55.1464C132.843 54.3046 132.679 53.4673 132.336 52.6982C132.336 52.6982 138.623 57.3208 138.542 76.5736Z" fill="#FCFDFE"/>
<path d="M132.393 91.8045C134.266 88.9952 135.779 85.9621 136.895 82.7765C136.915 79.5837 136.412 76.4093 135.408 73.3787C135.408 73.3787 132.995 90.8929 120.447 99.7524C120.447 99.7524 122.892 100.061 125.646 97.9213C121.771 101.655 117.38 104.816 112.608 107.306C120.698 104.395 127.635 98.9596 132.393 91.8045Z" fill="#FCFDFE"/>
<g opacity="0.25">
<path d="M65.4057 47.215C59.6408 55.83 57.4397 66.3386 59.264 76.5357C66.968 46.8255 79.396 38.207 79.396 38.207C73.4889 41.0898 68.6485 48.0083 68.6485 48.0083C70.6782 43.5122 73.4693 39.3993 76.8989 35.8505C72.3332 38.8177 68.4222 42.6849 65.4057 47.215Z" fill="#683C14"/>
</g>
<path d="M64.939 152.802C64.939 152.802 64.1774 126.676 82.649 126.719C82.649 126.719 69.1891 132.246 64.939 152.802Z" fill="#FCFDFE"/>
</g>
<defs>
<clipPath id="clip0_394_658">
<rect width="230.861" height="262.764" fill="white" transform="translate(15 45.2861) rotate(-11.3126)"/>
</clipPath>
</defs>
</svg>
