<svg width="36" height="31" viewBox="0 0 36 31" fill="none" xmlns="http://www.w3.org/2000/svg">
<path fill-rule="evenodd" clip-rule="evenodd" d="M30.3454 28.6326L30.3466 28.6296L30.3771 28.5535L35.625 2.09512V2.00919C35.625 1.34996 35.3814 0.774453 34.8513 0.429249C34.3874 0.127091 33.8541 0.105572 33.4801 0.133958C33.0846 0.163979 32.7116 0.262706 32.4534 0.344887C32.3206 0.387166 32.2094 0.427904 32.1299 0.458715C32.09 0.474179 32.0577 0.487301 32.0341 0.497078L32.011 0.506803L2.75134 11.9849L2.74329 11.9878C2.72749 11.9936 2.70659 12.0014 2.68135 12.0112C2.63103 12.0308 2.56253 12.0588 2.48207 12.0953C2.32408 12.1669 2.10579 12.2774 1.88441 12.429C1.50842 12.6865 0.792466 13.296 0.91336 14.2624C1.0135 15.0629 1.56528 15.5713 1.93727 15.8345C2.13668 15.9756 2.32745 16.0773 2.46715 16.1438C2.53794 16.1775 2.59806 16.2033 2.64284 16.2216C2.66529 16.2307 2.68406 16.238 2.69859 16.2435L2.71718 16.2505L2.72907 16.2549L7.84824 17.9783C7.83096 18.2995 7.86282 18.627 7.94799 18.9501L10.5122 28.6773C10.8163 29.8306 11.8597 30.634 13.0524 30.6332C14.1215 30.6324 15.0697 29.9856 15.4726 29.0206L19.476 24.74L26.3517 30.0114L26.4495 30.0541C27.0742 30.3267 27.6578 30.413 28.1914 30.3401C28.7243 30.2673 29.1478 30.0439 29.4658 29.7894C29.7788 29.539 29.9934 29.2563 30.1283 29.0436C30.1968 28.9355 30.2479 28.8404 30.2833 28.7689C30.3011 28.733 30.3152 28.7026 30.3257 28.6789L30.3389 28.6485L30.3435 28.6372L30.3454 28.6326ZM10.4862 18.2809C10.4279 18.0598 10.5194 17.8265 10.7124 17.7039L28.0759 6.67731C28.0759 6.67731 29.0972 6.05729 29.0607 6.67731C29.0607 6.67731 29.243 6.78681 28.6957 7.29733C28.1766 7.78221 16.3203 19.2291 15.1206 20.3874C15.0513 20.4542 15.01 20.5309 14.9856 20.624L13.0504 28.0081L10.4862 18.2809Z" fill="white"/>
</svg>
