<svg width="20" height="22" viewBox="0 0 20 22" fill="none" xmlns="http://www.w3.org/2000/svg">
<path d="M9.99378 0.829908L10.5268 0.173521C10.3741 0.0613029 10.1866 0.000442505 9.99378 0.000442505C9.80092 0.000442505 9.61349 0.0613029 9.46075 0.173521L9.99378 0.829908ZM19.13 3.3866L20.0018 3.40015C20.0035 3.29098 19.9826 3.18256 19.9403 3.08109C19.898 2.97963 19.8351 2.88711 19.7552 2.80884C19.6753 2.73057 19.58 2.66808 19.4748 2.62495C19.3695 2.58183 19.2564 2.55891 19.1418 2.55751H19.13V3.3866ZM9.99378 21.1695L9.51109 21.8608C9.65394 21.9519 9.82193 22.0005 9.99378 22.0005C10.1656 22.0005 10.3336 21.9519 10.4765 21.8608L9.99378 21.1695ZM0.87299 3.3866V2.55695C0.758503 2.5568 0.645106 2.57814 0.539274 2.61976C0.433442 2.66137 0.337248 2.72244 0.256183 2.79948C0.175119 2.87652 0.110771 2.96802 0.0668153 3.06876C0.0228593 3.1695 0.000155448 3.2775 0 3.3866L0 3.39902L0.87299 3.3866ZM9.46075 1.48573C13.4153 4.4059 17.9401 4.21795 19.13 4.21795V2.55695C17.9004 2.55695 13.9578 2.70482 10.5292 0.173521L9.46075 1.48573ZM18.2576 3.37362C18.1924 7.23068 18.0207 9.95161 17.6932 11.9671C17.3692 13.9616 16.9066 15.1564 16.3108 15.9963C15.7073 16.8682 14.9486 17.3858 13.8287 18.0247C12.6969 18.6703 11.2677 19.3662 9.51168 20.4781L10.4771 21.8608C12.1478 20.7998 13.5408 20.1236 14.7236 19.4498C15.9158 18.7685 16.9641 18.019 17.7547 16.9264C18.5531 15.8032 19.0707 14.3358 19.4131 12.221C19.7518 10.1283 19.9319 7.29445 19.9988 3.40071L18.2576 3.37362ZM10.4765 20.4781C8.72042 19.3662 7.2919 18.672 6.16186 18.0247C5.04131 17.3863 4.28559 16.8688 3.68385 15.9968C3.09159 15.1576 2.62845 13.965 2.30567 11.9676C1.97874 9.95161 1.80817 7.23068 1.74243 3.37362L0 3.40071C0.0669253 7.29502 0.245788 10.1283 0.583375 12.2205C0.925109 14.3341 1.44274 15.8004 2.2417 16.9258C3.03 18.0185 4.0777 18.7685 5.26874 19.4498C6.4497 20.1231 7.8421 20.7998 9.51346 21.8608L10.4765 20.4781ZM0.871213 4.21795C2.04803 4.21795 6.57289 4.4059 10.525 1.4863L9.45897 0.173521C6.02979 2.70482 2.08712 2.55695 0.871213 2.55695V4.21795Z" fill="white"/>
</svg>
