<svg width="30" height="30" viewBox="0 0 30 30" fill="none" xmlns="http://www.w3.org/2000/svg">
<path d="M10.3578 1.11102C8.19893 0.869733 5.96795 0.869733 3.80908 1.11102C2.42021 1.26624 1.29715 2.35994 1.13337 3.76029C0.875141 5.96812 0.875141 8.19852 1.13337 10.4064C1.29715 11.8067 2.42021 12.9004 3.80908 13.0556C5.96795 13.2969 8.19893 13.2969 10.3578 13.0556C11.7467 12.9004 12.8697 11.8067 13.0335 10.4064C13.2917 8.19852 13.2917 5.96812 13.0335 3.76029C12.8697 2.35994 11.7467 1.26624 10.3578 1.11102Z" fill="white" fill-opacity="0.8"/>
<path d="M10.3578 16.9443C8.19893 16.7031 5.96795 16.7031 3.80908 16.9443C2.42021 17.0996 1.29715 18.1933 1.13337 19.5936C0.875141 21.8015 0.875141 24.0319 1.13337 26.2397C1.29715 27.64 2.42021 28.7337 3.80908 28.889C5.96795 29.1302 8.19893 29.1302 10.3578 28.889C11.7467 28.7337 12.8697 27.64 13.0335 26.2397C13.2917 24.0319 13.2917 21.8015 13.0335 19.5936C12.8697 18.1933 11.7467 17.0996 10.3578 16.9443Z" fill="white" fill-opacity="0.8"/>
<path d="M26.1911 1.11102C24.0323 0.869733 21.8013 0.869733 19.6424 1.11102C18.2536 1.26624 17.1305 2.35994 16.9667 3.76029C16.7085 5.96812 16.7085 8.19852 16.9667 10.4064C17.1305 11.8067 18.2536 12.9004 19.6424 13.0556C21.8013 13.2969 24.0323 13.2969 26.1911 13.0556C27.58 12.9004 28.7031 11.8067 28.8669 10.4064C29.1251 8.19852 29.1251 5.96812 28.8669 3.76029C28.7031 2.35994 27.58 1.26624 26.1911 1.11102Z" fill="white" fill-opacity="0.8"/>
<path d="M26.1911 16.9443C24.0323 16.7031 21.8013 16.7031 19.6424 16.9443C18.2536 17.0996 17.1305 18.1933 16.9667 19.5936C16.7085 21.8015 16.7085 24.0319 16.9667 26.2397C17.1305 27.64 18.2536 28.7337 19.6424 28.889C21.8013 29.1302 24.0323 29.1302 26.1911 28.889C27.58 28.7337 28.7031 27.64 28.8669 26.2397C29.1251 24.0319 29.1251 21.8015 28.8669 19.5936C28.7031 18.1933 27.58 17.0996 26.1911 16.9443Z" fill="white" fill-opacity="0.8"/>
</svg>
