<svg width="19" height="19" viewBox="0 0 19 19" fill="none" xmlns="http://www.w3.org/2000/svg">
<path fill-rule="evenodd" clip-rule="evenodd" d="M5.53276 3.87175C8.1735 3.66515 10.8263 3.66515 13.4671 3.87175L15.241 4.01053C16.229 4.08783 17.0373 4.82835 17.2007 5.80588C17.6093 8.25173 17.6093 10.7484 17.2007 13.1943C17.0373 14.1718 16.229 14.9123 15.241 14.9896L13.4671 15.1284C10.8263 15.335 8.1735 15.335 5.53276 15.1284L3.75887 14.9896C2.77081 14.9123 1.9625 14.1718 1.79917 13.1943C1.39051 10.7484 1.39051 8.25173 1.79917 5.80588C1.9625 4.82835 2.77081 4.08783 3.75887 4.01053L5.53276 3.87175ZM7.91656 11.4556V7.54456C7.91656 7.35995 8.11795 7.24592 8.27625 7.3409L11.5355 9.29643C11.6892 9.38868 11.6892 9.61149 11.5355 9.70374L8.27625 11.6593C8.11795 11.7542 7.91656 11.6402 7.91656 11.4556Z" fill="#C3BDBA"/>
</svg>
